<svg width="255" height="255" viewBox="0 0 255 255" fill="none" xmlns="http://www.w3.org/2000/svg">
<path fill-rule="evenodd" clip-rule="evenodd" d="M135.166 22.5959C186.506 26.4979 227.601 67.0319 232.389 118.119H135.166V22.5959ZM41.8004 65.3894C59.2224 41.7559 86.2342 25.6316 117.096 22.7563V114.212L41.8004 65.3894ZM127.034 0C56.8751 0 0 56.8751 0 127.034C0 197.191 56.8762 254.065 127.034 254.065C141.961 254.065 156.282 251.482 169.588 246.754L162.736 227.765C151.28 231.866 139.201 233.957 127.033 233.945C68.5867 233.945 21.2059 186.564 21.2059 128.118C21.2059 111.109 25.224 95.0423 32.3537 80.8035L117.095 136.25L232.555 136.19C230.538 162.896 218.612 186.833 200.443 204.34L214.887 218.783C239.029 195.661 254.067 163.103 254.067 127.034C254.067 56.8751 197.19 0 127.034 0Z" fill="#435585"/>
</svg>
