<svg width="368" height="425" viewBox="0 0 368 425" fill="none" xmlns="http://www.w3.org/2000/svg">
<rect x="14.25" y="1.25" width="319.5" height="384.5" rx="20.75" fill="#F3F1FF" stroke="#7c3aed" stroke-width="1.5"/>
<g filter="url(#filter0_d_25_322)">
<rect x="15" y="89" width="318" height="296" rx="20" fill="#F3F1FF" shape-rendering="crispEdges"/>
<path d="M51.3357 124.498V132.75H50.2505V126.597L47.5078 132.75H46.7446L43.9899 126.585V132.75H42.9047V124.498H44.0734L47.1262 131.319L50.179 124.498H51.3357ZM56.0262 132.857C55.414 132.857 54.8575 132.718 54.3567 132.44C53.8638 132.162 53.4742 131.768 53.188 131.259C52.9098 130.743 52.7706 130.146 52.7706 129.471C52.7706 128.803 52.9137 128.215 53.1999 127.706C53.4941 127.189 53.8916 126.795 54.3924 126.525C54.8933 126.247 55.4538 126.108 56.0739 126.108C56.694 126.108 57.2544 126.247 57.7553 126.525C58.2561 126.795 58.6497 127.185 58.9359 127.694C59.23 128.203 59.3771 128.795 59.3771 129.471C59.3771 130.146 59.226 130.743 58.9239 131.259C58.6298 131.768 58.2283 132.162 57.7195 132.44C57.2107 132.718 56.6463 132.857 56.0262 132.857ZM56.0262 131.903C56.4157 131.903 56.7814 131.812 57.1233 131.629C57.4651 131.446 57.7394 131.172 57.9461 130.806C58.1607 130.441 58.2681 129.995 58.2681 129.471C58.2681 128.946 58.1647 128.501 57.958 128.135C57.7513 127.769 57.481 127.499 57.1471 127.324C56.8132 127.141 56.4515 127.05 56.0619 127.05C55.6644 127.05 55.2987 127.141 54.9648 127.324C54.6389 127.499 54.3765 127.769 54.1778 128.135C53.979 128.501 53.8797 128.946 53.8797 129.471C53.8797 130.003 53.9751 130.452 54.1659 130.818C54.3646 131.184 54.627 131.458 54.9529 131.641C55.2789 131.816 55.6366 131.903 56.0262 131.903ZM63.9879 126.096C64.7829 126.096 65.4268 126.338 65.9197 126.823C66.4126 127.3 66.6591 127.992 66.6591 128.898V132.75H65.5858V129.053C65.5858 128.401 65.4228 127.904 65.0969 127.563C64.7709 127.213 64.3257 127.038 63.7613 127.038C63.1889 127.038 62.7318 127.217 62.3899 127.575C62.056 127.932 61.8891 128.453 61.8891 129.137V132.75H60.8039V126.215H61.8891V127.145C62.1037 126.811 62.3939 126.553 62.7596 126.37C63.1332 126.187 63.5427 126.096 63.9879 126.096Z" fill="#7c3aed"/>
<path d="M48.1729 171.629C49.1825 170.819 49.9736 170.155 50.546 169.638C51.1184 169.113 51.5993 168.569 51.9889 168.004C52.3864 167.432 52.5851 166.871 52.5851 166.323C52.5851 165.806 52.4579 165.401 52.2035 165.107C51.9571 164.804 51.5556 164.653 50.9991 164.653C50.4585 164.653 50.0372 164.824 49.7351 165.166C49.4409 165.5 49.2819 165.949 49.2581 166.514H48.2087C48.2405 165.623 48.5108 164.936 49.0196 164.451C49.5284 163.966 50.1842 163.723 50.9872 163.723C51.806 163.723 52.454 163.95 52.931 164.403C53.4159 164.856 53.6584 165.48 53.6584 166.275C53.6584 166.935 53.4596 167.579 53.0621 168.207C52.6726 168.827 52.2274 169.376 51.7265 169.853C51.2257 170.322 50.5857 170.87 49.8066 171.498H53.9088V172.405H48.1729V171.629ZM56.5585 170.187C56.638 170.64 56.8209 170.99 57.1071 171.236C57.4012 171.482 57.7947 171.606 58.2876 171.606C58.9475 171.606 59.4324 171.347 59.7425 170.831C60.0605 170.314 60.2115 169.443 60.1956 168.219C60.0287 168.577 59.7504 168.859 59.3609 169.066C58.9713 169.264 58.5381 169.364 58.0611 169.364C57.5284 169.364 57.0514 169.256 56.6301 169.042C56.2167 168.819 55.8907 168.497 55.6522 168.076C55.4137 167.654 55.2945 167.146 55.2945 166.549C55.2945 165.699 55.5409 165.015 56.0338 164.498C56.5267 163.974 57.2263 163.711 58.1326 163.711C59.2456 163.711 60.0247 164.073 60.4699 164.796C60.9231 165.52 61.1496 166.597 61.1496 168.028C61.1496 169.03 61.0582 169.857 60.8754 170.509C60.7005 171.16 60.3984 171.657 59.9691 171.999C59.5477 172.341 58.9674 172.512 58.228 172.512C57.4171 172.512 56.7851 172.293 56.3319 171.856C55.8788 171.419 55.6204 170.862 55.5568 170.187H56.5585ZM58.2399 168.446C58.7726 168.446 59.2098 168.283 59.5517 167.957C59.8935 167.623 60.0645 167.174 60.0645 166.609C60.0645 166.013 59.8975 165.532 59.5636 165.166C59.2297 164.8 58.7607 164.618 58.1565 164.618C57.6 164.618 57.1548 164.792 56.8209 165.142C56.4949 165.492 56.3319 165.953 56.3319 166.526C56.3319 167.106 56.4949 167.571 56.8209 167.921C57.1468 168.271 57.6198 168.446 58.2399 168.446Z" fill="#7c3aed"/>
<path d="M48.0013 207.85C48.0013 206.482 48.2239 205.417 48.6691 204.654C49.1143 203.883 49.8934 203.497 51.0064 203.497C52.1114 203.497 52.8866 203.883 53.3318 204.654C53.777 205.417 53.9996 206.482 53.9996 207.85C53.9996 209.241 53.777 210.322 53.3318 211.093C52.8866 211.864 52.1114 212.25 51.0064 212.25C49.8934 212.25 49.1143 211.864 48.6691 211.093C48.2239 210.322 48.0013 209.241 48.0013 207.85ZM52.9263 207.85C52.9263 207.158 52.8786 206.574 52.7832 206.097C52.6958 205.612 52.5089 205.222 52.2227 204.928C51.9445 204.634 51.539 204.487 51.0064 204.487C50.4658 204.487 50.0524 204.634 49.7662 204.928C49.4879 205.222 49.3011 205.612 49.2057 206.097C49.1183 206.574 49.0745 207.158 49.0745 207.85C49.0745 208.565 49.1183 209.165 49.2057 209.65C49.3011 210.135 49.4879 210.525 49.7662 210.819C50.0524 211.113 50.4658 211.26 51.0064 211.26C51.539 211.26 51.9445 211.113 52.2227 210.819C52.5089 210.525 52.6958 210.135 52.7832 209.65C52.8786 209.165 52.9263 208.565 52.9263 207.85ZM60.9868 204.57H56.8011V207.289C56.9839 207.035 57.2542 206.828 57.612 206.669C57.9697 206.502 58.3553 206.419 58.7687 206.419C59.4286 206.419 59.9652 206.558 60.3786 206.836C60.792 207.106 61.0861 207.46 61.261 207.897C61.4439 208.327 61.5353 208.784 61.5353 209.269C61.5353 209.841 61.428 210.354 61.2133 210.807C60.9987 211.26 60.6688 211.618 60.2236 211.88C59.7863 212.143 59.2417 212.274 58.5898 212.274C57.7551 212.274 57.0793 212.059 56.5626 211.63C56.0458 211.201 55.7318 210.628 55.6205 209.913H56.6818C56.7852 210.366 57.0038 210.72 57.3377 210.974C57.6716 211.228 58.093 211.356 58.6018 211.356C59.2298 211.356 59.7028 211.169 60.0208 210.795C60.3388 210.414 60.4978 209.913 60.4978 209.293C60.4978 208.673 60.3388 208.196 60.0208 207.862C59.7028 207.52 59.2338 207.349 58.6137 207.349C58.1923 207.349 57.8227 207.452 57.5047 207.659C57.1946 207.858 56.968 208.132 56.8249 208.482H55.7994V203.616H60.9868V204.57Z" fill="#333333"/>
<path d="M49.8637 244.368V243.378H52.1056V252H51.0085V244.368H49.8637ZM53.8384 251.129C54.8481 250.319 55.6391 249.655 56.2115 249.138C56.7839 248.613 57.2649 248.069 57.6544 247.504C58.0519 246.932 58.2507 246.371 58.2507 245.823C58.2507 245.306 58.1235 244.901 57.8691 244.607C57.6226 244.304 57.2212 244.153 56.6647 244.153C56.1241 244.153 55.7027 244.324 55.4006 244.666C55.1065 245 54.9475 245.449 54.9236 246.014H53.8742C53.906 245.123 54.1763 244.436 54.6851 243.951C55.1939 243.466 55.8498 243.223 56.6527 243.223C57.4716 243.223 58.1195 243.45 58.5965 243.903C59.0815 244.356 59.3239 244.98 59.3239 245.775C59.3239 246.435 59.1252 247.079 58.7277 247.707C58.3381 248.327 57.8929 248.876 57.3921 249.353C56.8912 249.822 56.2513 250.37 55.4722 250.998H59.5744V251.905H53.8384V251.129Z" fill="#333333"/>
<path d="M49.5376 284.118V283.128H51.7795V291.75H50.6824V284.118H49.5376ZM55.0388 289.437C55.1183 289.89 55.3011 290.24 55.5873 290.486C55.8815 290.732 56.275 290.856 56.7679 290.856C57.4277 290.856 57.9127 290.597 58.2227 290.081C58.5407 289.564 58.6918 288.693 58.6759 287.469C58.5089 287.827 58.2307 288.109 57.8411 288.316C57.4516 288.514 57.0183 288.614 56.5413 288.614C56.0087 288.614 55.5317 288.506 55.1103 288.292C54.6969 288.069 54.371 287.747 54.1325 287.326C53.894 286.904 53.7747 286.396 53.7747 285.799C53.7747 284.949 54.0212 284.265 54.5141 283.748C55.007 283.224 55.7066 282.961 56.6129 282.961C57.7259 282.961 58.505 283.323 58.9502 284.046C59.4033 284.77 59.6299 285.847 59.6299 287.278C59.6299 288.28 59.5385 289.107 59.3556 289.759C59.1807 290.41 58.8786 290.907 58.4493 291.249C58.028 291.591 57.4476 291.762 56.7083 291.762C55.8974 291.762 55.2653 291.543 54.8122 291.106C54.359 290.669 54.1007 290.112 54.0371 289.437H55.0388ZM56.7202 287.696C57.2528 287.696 57.6901 287.533 58.0319 287.207C58.3738 286.873 58.5447 286.424 58.5447 285.859C58.5447 285.263 58.3778 284.782 58.0439 284.416C57.71 284.05 57.2409 283.868 56.6367 283.868C56.0802 283.868 55.635 284.042 55.3011 284.392C54.9752 284.742 54.8122 285.203 54.8122 285.776C54.8122 286.356 54.9752 286.821 55.3011 287.171C55.6271 287.521 56.1001 287.696 56.7202 287.696Z" fill="#333333"/>
<path d="M48.1438 330.629C49.1534 329.819 49.9445 329.155 50.5169 328.638C51.0893 328.113 51.5702 327.569 51.9598 327.004C52.3573 326.432 52.556 325.871 52.556 325.323C52.556 324.806 52.4288 324.401 52.1744 324.107C51.928 323.804 51.5265 323.653 50.97 323.653C50.4294 323.653 50.0081 323.824 49.706 324.166C49.4118 324.5 49.2528 324.949 49.229 325.514H48.1796C48.2114 324.623 48.4817 323.936 48.9905 323.451C49.4993 322.966 50.1551 322.723 50.9581 322.723C51.7769 322.723 52.4249 322.95 52.9019 323.403C53.3868 323.856 53.6293 324.48 53.6293 325.275C53.6293 325.935 53.4305 326.579 53.033 327.207C52.6435 327.827 52.1983 328.376 51.6974 328.853C51.1966 329.322 50.5566 329.87 49.7775 330.498H53.8797V331.405H48.1438V330.629ZM59.9399 324.929C59.765 324.047 59.2205 323.606 58.3062 323.606C57.5987 323.606 57.07 323.88 56.7202 324.428C56.3704 324.969 56.1995 325.863 56.2074 327.112C56.3903 326.698 56.6924 326.376 57.1137 326.146C57.543 325.907 58.02 325.788 58.5447 325.788C59.3636 325.788 60.0155 326.042 60.5004 326.551C60.9933 327.06 61.2398 327.764 61.2398 328.662C61.2398 329.202 61.1324 329.687 60.9178 330.117C60.7111 330.546 60.3931 330.888 59.9638 331.142C59.5424 331.397 59.0297 331.524 58.4255 331.524C57.6066 331.524 56.9666 331.341 56.5055 330.975C56.0444 330.61 55.7225 330.105 55.5396 329.461C55.3568 328.817 55.2653 328.022 55.2653 327.076C55.2653 324.158 56.2829 322.699 58.3181 322.699C59.0972 322.699 59.7094 322.91 60.1546 323.331C60.5998 323.753 60.8621 324.285 60.9416 324.929H59.9399ZM58.3181 326.706C57.9763 326.706 57.6543 326.778 57.3522 326.921C57.0501 327.056 56.8037 327.267 56.6129 327.553C56.43 327.831 56.3386 328.173 56.3386 328.578C56.3386 329.183 56.5135 329.675 56.8633 330.057C57.2131 330.431 57.7139 330.618 58.3658 330.618C58.9223 330.618 59.3636 330.447 59.6895 330.105C60.0234 329.755 60.1904 329.286 60.1904 328.698C60.1904 328.078 60.0314 327.593 59.7134 327.243C59.3954 326.885 58.9303 326.706 58.3181 326.706Z" fill="#333333"/>
<path d="M89.7969 124.438V125.321H87.5311V132.75H86.446V125.321H84.1683V124.438H89.7969ZM96.9282 126.215V132.75H95.8431V131.784C95.6364 132.118 95.3462 132.38 94.9725 132.571C94.6068 132.754 94.2014 132.845 93.7562 132.845C93.2474 132.845 92.7903 132.742 92.3848 132.535C91.9794 132.321 91.6574 132.003 91.4189 131.581C91.1883 131.16 91.0731 130.647 91.0731 130.043V126.215H92.1463V129.9C92.1463 130.544 92.3093 131.041 92.6352 131.391C92.9612 131.732 93.4064 131.903 93.9708 131.903C94.5512 131.903 95.0083 131.724 95.3422 131.367C95.6761 131.009 95.8431 130.488 95.8431 129.805V126.215H96.9282ZM104.723 129.232C104.723 129.439 104.711 129.657 104.687 129.888H99.4641C99.5038 130.532 99.7224 131.037 100.12 131.402C100.525 131.76 101.014 131.939 101.587 131.939C102.056 131.939 102.445 131.832 102.755 131.617C103.073 131.395 103.296 131.1 103.423 130.735H104.592C104.417 131.363 104.067 131.876 103.542 132.273C103.018 132.663 102.366 132.857 101.587 132.857C100.967 132.857 100.41 132.718 99.9172 132.44C99.4323 132.162 99.0507 131.768 98.7724 131.259C98.4942 130.743 98.355 130.146 98.355 129.471C98.355 128.795 98.4902 128.203 98.7605 127.694C99.0308 127.185 99.4084 126.795 99.8934 126.525C100.386 126.247 100.951 126.108 101.587 126.108C102.207 126.108 102.755 126.243 103.232 126.513C103.709 126.784 104.075 127.157 104.329 127.634C104.592 128.103 104.723 128.636 104.723 129.232ZM103.602 129.006C103.602 128.592 103.511 128.238 103.328 127.944C103.145 127.642 102.894 127.416 102.576 127.265C102.266 127.106 101.921 127.026 101.539 127.026C100.99 127.026 100.521 127.201 100.132 127.551C99.7503 127.901 99.5316 128.385 99.476 129.006H103.602Z" fill="#7c3aed"/>
<path d="M87.9603 166.049C88.016 165.317 88.2982 164.745 88.807 164.331C89.3158 163.918 89.9757 163.711 90.7866 163.711C91.3272 163.711 91.7922 163.811 92.1818 164.009C92.5793 164.2 92.8774 164.463 93.0762 164.796C93.2829 165.13 93.3862 165.508 93.3862 165.929C93.3862 166.422 93.2431 166.848 92.9569 167.205C92.6787 167.563 92.313 167.794 91.8598 167.897V167.957C92.3766 168.084 92.786 168.334 93.0881 168.708C93.3902 169.082 93.5412 169.57 93.5412 170.175C93.5412 170.628 93.4379 171.037 93.2312 171.403C93.0245 171.761 92.7144 172.043 92.301 172.25C91.8876 172.456 91.3908 172.56 90.8104 172.56C89.9677 172.56 89.2761 172.341 88.7355 171.904C88.1949 171.459 87.8928 170.831 87.8292 170.02H88.8786C88.9342 170.497 89.129 170.886 89.4629 171.188C89.7968 171.49 90.242 171.641 90.7985 171.641C91.355 171.641 91.7763 171.498 92.0625 171.212C92.3567 170.918 92.5038 170.54 92.5038 170.079C92.5038 169.483 92.305 169.054 91.9075 168.791C91.51 168.529 90.9098 168.398 90.1068 168.398H89.8326V167.492H90.1188C90.8502 167.484 91.4027 167.364 91.7763 167.134C92.15 166.895 92.3368 166.53 92.3368 166.037C92.3368 165.615 92.1977 165.277 91.9194 165.023C91.6491 164.769 91.2596 164.641 90.7508 164.641C90.2579 164.641 89.8604 164.769 89.5583 165.023C89.2562 165.277 89.0773 165.619 89.0217 166.049H87.9603ZM95.0064 168.1C95.0064 166.732 95.229 165.667 95.6742 164.904C96.1194 164.133 96.8985 163.747 98.0115 163.747C99.1166 163.747 99.8917 164.133 100.337 164.904C100.782 165.667 101.005 166.732 101.005 168.1C101.005 169.491 100.782 170.572 100.337 171.343C99.8917 172.114 99.1166 172.5 98.0115 172.5C96.8985 172.5 96.1194 172.114 95.6742 171.343C95.229 170.572 95.0064 169.491 95.0064 168.1ZM99.9315 168.1C99.9315 167.408 99.8838 166.824 99.7884 166.347C99.7009 165.862 99.5141 165.472 99.2279 165.178C98.9496 164.884 98.5442 164.737 98.0115 164.737C97.4709 164.737 97.0575 164.884 96.7713 165.178C96.4931 165.472 96.3063 165.862 96.2109 166.347C96.1234 166.824 96.0797 167.408 96.0797 168.1C96.0797 168.815 96.1234 169.415 96.2109 169.9C96.3063 170.385 96.4931 170.775 96.7713 171.069C97.0575 171.363 97.4709 171.51 98.0115 171.51C98.5442 171.51 98.9496 171.363 99.2279 171.069C99.5141 170.775 99.7009 170.385 99.7884 169.9C99.8838 169.415 99.9315 168.815 99.9315 168.1Z" fill="#7c3aed"/>
<path d="M87.7105 207.85C87.7105 206.482 87.9331 205.417 88.3783 204.654C88.8235 203.883 89.6026 203.497 90.7156 203.497C91.8207 203.497 92.5958 203.883 93.041 204.654C93.4862 205.417 93.7088 206.482 93.7088 207.85C93.7088 209.241 93.4862 210.322 93.041 211.093C92.5958 211.864 91.8207 212.25 90.7156 212.25C89.6026 212.25 88.8235 211.864 88.3783 211.093C87.9331 210.322 87.7105 209.241 87.7105 207.85ZM92.6356 207.85C92.6356 207.158 92.5879 206.574 92.4925 206.097C92.405 205.612 92.2182 205.222 91.932 204.928C91.6537 204.634 91.2483 204.487 90.7156 204.487C90.175 204.487 89.7616 204.634 89.4754 204.928C89.1972 205.222 89.0104 205.612 88.915 206.097C88.8275 206.574 88.7838 207.158 88.7838 207.85C88.7838 208.565 88.8275 209.165 88.915 209.65C89.0104 210.135 89.1972 210.525 89.4754 210.819C89.7616 211.113 90.175 211.26 90.7156 211.26C91.2483 211.26 91.6537 211.113 91.932 210.819C92.2182 210.525 92.405 210.135 92.4925 209.65C92.5879 209.165 92.6356 208.565 92.6356 207.85ZM100.004 205.679C99.8295 204.797 99.2849 204.356 98.3706 204.356C97.6631 204.356 97.1344 204.63 96.7846 205.178C96.4348 205.719 96.2639 206.613 96.2718 207.862C96.4547 207.448 96.7568 207.126 97.1781 206.896C97.6074 206.657 98.0844 206.538 98.6091 206.538C99.428 206.538 100.08 206.792 100.565 207.301C101.058 207.81 101.304 208.514 101.304 209.412C101.304 209.952 101.197 210.437 100.982 210.867C100.776 211.296 100.458 211.638 100.028 211.892C99.6069 212.147 99.0941 212.274 98.4899 212.274C97.671 212.274 97.0311 212.091 96.57 211.725C96.1089 211.36 95.7869 210.855 95.604 210.211C95.4212 209.567 95.3298 208.772 95.3298 207.826C95.3298 204.908 96.3474 203.449 98.3826 203.449C99.1617 203.449 99.7738 203.66 100.219 204.081C100.664 204.503 100.927 205.035 101.006 205.679H100.004ZM98.3826 207.456C98.0407 207.456 97.7187 207.528 97.4166 207.671C97.1145 207.806 96.8681 208.017 96.6773 208.303C96.4944 208.581 96.403 208.923 96.403 209.328C96.403 209.933 96.5779 210.425 96.9277 210.807C97.2775 211.181 97.7784 211.368 98.4303 211.368C98.9868 211.368 99.428 211.197 99.7539 210.855C100.088 210.505 100.255 210.036 100.255 209.448C100.255 208.828 100.096 208.343 99.7778 207.993C99.4598 207.635 98.9947 207.456 98.3826 207.456Z" fill="#333333"/>
<path d="M89.5322 244.368V243.378H91.7741V252H90.677V244.368H89.5322ZM93.6142 245.549C93.6699 244.817 93.9521 244.245 94.4609 243.831C94.9697 243.418 95.6296 243.211 96.4405 243.211C96.9811 243.211 97.4461 243.311 97.8357 243.509C98.2332 243.7 98.5313 243.963 98.7301 244.296C98.9368 244.63 99.0401 245.008 99.0401 245.429C99.0401 245.922 98.897 246.348 98.6108 246.705C98.3326 247.063 97.9669 247.294 97.5137 247.397V247.457C98.0305 247.584 98.4399 247.834 98.742 248.208C99.0441 248.582 99.1951 249.07 99.1951 249.675C99.1951 250.128 99.0918 250.537 98.8851 250.903C98.6784 251.261 98.3683 251.543 97.9549 251.75C97.5415 251.956 97.0447 252.06 96.4643 252.06C95.6216 252.06 94.93 251.841 94.3894 251.404C93.8488 250.959 93.5467 250.331 93.4831 249.52H94.5325C94.5881 249.997 94.7829 250.386 95.1168 250.688C95.4507 250.99 95.8959 251.141 96.4524 251.141C97.0089 251.141 97.4302 250.998 97.7164 250.712C98.0106 250.418 98.1577 250.04 98.1577 249.579C98.1577 248.983 97.9589 248.554 97.5614 248.291C97.1639 248.029 96.5637 247.898 95.7607 247.898H95.4865V246.992H95.7727C96.5041 246.984 97.0566 246.864 97.4302 246.634C97.8039 246.395 97.9907 246.03 97.9907 245.537C97.9907 245.115 97.8516 244.777 97.5733 244.523C97.303 244.269 96.9135 244.141 96.4047 244.141C95.9118 244.141 95.5143 244.269 95.2122 244.523C94.9101 244.777 94.7312 245.119 94.6756 245.549H93.6142Z" fill="#333333"/>
<path d="M87.9345 290.879C88.9442 290.069 89.7352 289.405 90.3076 288.888C90.88 288.363 91.361 287.819 91.7505 287.254C92.148 286.682 92.3468 286.121 92.3468 285.573C92.3468 285.056 92.2196 284.651 91.9652 284.357C91.7187 284.054 91.3173 283.903 90.7608 283.903C90.2202 283.903 89.7988 284.074 89.4967 284.416C89.2026 284.75 89.0436 285.199 89.0197 285.764H87.9703C88.0021 284.873 88.2724 284.186 88.7812 283.701C89.29 283.216 89.9459 282.973 90.7488 282.973C91.5677 282.973 92.2156 283.2 92.6926 283.653C93.1776 284.106 93.42 284.73 93.42 285.525C93.42 286.185 93.2213 286.829 92.8238 287.457C92.4342 288.077 91.989 288.626 91.4882 289.103C90.9873 289.572 90.3474 290.12 89.5683 290.748H93.6705V291.655H87.9345V290.879ZM94.9249 287.35C94.9249 285.982 95.1475 284.917 95.5927 284.154C96.0379 283.383 96.817 282.997 97.93 282.997C99.0351 282.997 99.8102 283.383 100.255 284.154C100.701 284.917 100.923 285.982 100.923 287.35C100.923 288.741 100.701 289.822 100.255 290.593C99.8102 291.364 99.0351 291.75 97.93 291.75C96.817 291.75 96.0379 291.364 95.5927 290.593C95.1475 289.822 94.9249 288.741 94.9249 287.35ZM99.8499 287.35C99.8499 286.658 99.8022 286.074 99.7068 285.597C99.6194 285.112 99.4326 284.722 99.1464 284.428C98.8681 284.134 98.4627 283.987 97.93 283.987C97.3894 283.987 96.976 284.134 96.6898 284.428C96.4116 284.722 96.2247 285.112 96.1293 285.597C96.0419 286.074 95.9982 286.658 95.9982 287.35C95.9982 288.065 96.0419 288.665 96.1293 289.15C96.2247 289.635 96.4116 290.025 96.6898 290.319C96.976 290.613 97.3894 290.76 97.93 290.76C98.4627 290.76 98.8681 290.613 99.1464 290.319C99.4326 290.025 99.6194 289.635 99.7068 289.15C99.8022 288.665 99.8499 288.065 99.8499 287.35Z" fill="#333333"/>
<path d="M88.4237 330.629C89.4333 329.819 90.2243 329.155 90.7967 328.638C91.3691 328.113 91.8501 327.569 92.2397 327.004C92.6372 326.432 92.8359 325.871 92.8359 325.323C92.8359 324.806 92.7087 324.401 92.4543 324.107C92.2079 323.804 91.8064 323.653 91.2499 323.653C90.7093 323.653 90.2879 323.824 89.9858 324.166C89.6917 324.5 89.5327 324.949 89.5088 325.514H88.4594C88.4912 324.623 88.7615 323.936 89.2703 323.451C89.7791 322.966 90.435 322.723 91.238 322.723C92.0568 322.723 92.7047 322.95 93.1817 323.403C93.6667 323.856 93.9092 324.48 93.9092 325.275C93.9092 325.935 93.7104 326.579 93.3129 327.207C92.9234 327.827 92.4782 328.376 91.9773 328.853C91.4765 329.322 90.8365 329.87 90.0574 330.498H94.1596V331.405H88.4237V330.629ZM100.721 323.725L97.4055 331.5H96.3084L99.6713 323.832H95.0682V322.902H100.721V323.725Z" fill="#333333"/>
<path d="M132.071 124.438L129.662 132.75H128.446L126.514 126.06L124.51 132.75L123.306 132.762L120.981 124.438H122.137L123.95 131.486L125.953 124.438H127.17L129.078 131.462L130.902 124.438H132.071ZM139.221 129.232C139.221 129.439 139.209 129.657 139.185 129.888H133.962C134.002 130.532 134.22 131.037 134.618 131.402C135.023 131.76 135.512 131.939 136.085 131.939C136.554 131.939 136.943 131.832 137.253 131.617C137.571 131.395 137.794 131.1 137.921 130.735H139.09C138.915 131.363 138.565 131.876 138.04 132.273C137.516 132.663 136.864 132.857 136.085 132.857C135.464 132.857 134.908 132.718 134.415 132.44C133.93 132.162 133.549 131.768 133.27 131.259C132.992 130.743 132.853 130.146 132.853 129.471C132.853 128.795 132.988 128.203 133.258 127.694C133.529 127.185 133.906 126.795 134.391 126.525C134.884 126.247 135.449 126.108 136.085 126.108C136.705 126.108 137.253 126.243 137.73 126.513C138.207 126.784 138.573 127.157 138.827 127.634C139.09 128.103 139.221 128.636 139.221 129.232ZM138.1 129.006C138.1 128.592 138.008 128.238 137.826 127.944C137.643 127.642 137.392 127.416 137.074 127.265C136.764 127.106 136.418 127.026 136.037 127.026C135.488 127.026 135.019 127.201 134.63 127.551C134.248 127.901 134.03 128.385 133.974 129.006H138.1ZM140.248 129.459C140.248 128.791 140.383 128.207 140.653 127.706C140.924 127.197 141.293 126.803 141.762 126.525C142.239 126.247 142.772 126.108 143.36 126.108C143.869 126.108 144.342 126.227 144.779 126.466C145.217 126.696 145.55 127.002 145.781 127.384V123.926H146.878V132.75H145.781V131.522C145.566 131.911 145.248 132.233 144.827 132.488C144.406 132.734 143.913 132.857 143.348 132.857C142.768 132.857 142.239 132.714 141.762 132.428C141.293 132.142 140.924 131.74 140.653 131.224C140.383 130.707 140.248 130.119 140.248 129.459ZM145.781 129.471C145.781 128.978 145.682 128.548 145.483 128.183C145.284 127.817 145.014 127.539 144.672 127.348C144.338 127.149 143.968 127.05 143.563 127.05C143.158 127.05 142.788 127.145 142.454 127.336C142.12 127.527 141.854 127.805 141.655 128.171C141.456 128.537 141.357 128.966 141.357 129.459C141.357 129.96 141.456 130.397 141.655 130.77C141.854 131.136 142.12 131.418 142.454 131.617C142.788 131.808 143.158 131.903 143.563 131.903C143.968 131.903 144.338 131.808 144.672 131.617C145.014 131.418 145.284 131.136 145.483 130.77C145.682 130.397 145.781 129.964 145.781 129.471Z" fill="#7c3aed"/>
<path d="M129.545 166.049C129.6 165.317 129.882 164.745 130.391 164.331C130.9 163.918 131.56 163.711 132.371 163.711C132.911 163.711 133.376 163.811 133.766 164.009C134.163 164.2 134.462 164.463 134.66 164.796C134.867 165.13 134.97 165.508 134.97 165.929C134.97 166.422 134.827 166.848 134.541 167.205C134.263 167.563 133.897 167.794 133.444 167.897V167.957C133.961 168.084 134.37 168.334 134.672 168.708C134.974 169.082 135.125 169.57 135.125 170.175C135.125 170.628 135.022 171.037 134.815 171.403C134.609 171.761 134.299 172.043 133.885 172.25C133.472 172.456 132.975 172.56 132.395 172.56C131.552 172.56 130.86 172.341 130.32 171.904C129.779 171.459 129.477 170.831 129.413 170.02H130.463C130.518 170.497 130.713 170.886 131.047 171.188C131.381 171.49 131.826 171.641 132.383 171.641C132.939 171.641 133.361 171.498 133.647 171.212C133.941 170.918 134.088 170.54 134.088 170.079C134.088 169.483 133.889 169.054 133.492 168.791C133.094 168.529 132.494 168.398 131.691 168.398H131.417V167.492H131.703C132.434 167.484 132.987 167.364 133.361 167.134C133.734 166.895 133.921 166.53 133.921 166.037C133.921 165.615 133.782 165.277 133.504 165.023C133.233 164.769 132.844 164.641 132.335 164.641C131.842 164.641 131.445 164.769 131.142 165.023C130.84 165.277 130.661 165.619 130.606 166.049H129.545ZM136.304 164.868V163.878H138.546V172.5H137.449V164.868H136.304Z" fill="#7c3aed"/>
<path d="M127.99 207.85C127.99 206.482 128.213 205.417 128.658 204.654C129.103 203.883 129.883 203.497 130.996 203.497C132.101 203.497 132.876 203.883 133.321 204.654C133.766 205.417 133.989 206.482 133.989 207.85C133.989 209.241 133.766 210.322 133.321 211.093C132.876 211.864 132.101 212.25 130.996 212.25C129.883 212.25 129.103 211.864 128.658 211.093C128.213 210.322 127.99 209.241 127.99 207.85ZM132.915 207.85C132.915 207.158 132.868 206.574 132.772 206.097C132.685 205.612 132.498 205.222 132.212 204.928C131.934 204.634 131.528 204.487 130.996 204.487C130.455 204.487 130.042 204.634 129.755 204.928C129.477 205.222 129.29 205.612 129.195 206.097C129.107 206.574 129.064 207.158 129.064 207.85C129.064 208.565 129.107 209.165 129.195 209.65C129.29 210.135 129.477 210.525 129.755 210.819C130.042 211.113 130.455 211.26 130.996 211.26C131.528 211.26 131.934 211.113 132.212 210.819C132.498 210.525 132.685 210.135 132.772 209.65C132.868 209.165 132.915 208.565 132.915 207.85ZM140.785 204.475L137.47 212.25H136.373L139.736 204.582H135.133V203.652H140.785V204.475Z" fill="#333333"/>
<path d="M129.043 244.368V243.378H131.285V252H130.188V244.368H129.043ZM132.887 250.08V249.257L137.073 243.462H138.373V249.138H139.565V250.08H138.373V252H137.299V250.08H132.887ZM137.347 244.595L134.139 249.138H137.347V244.595Z" fill="#333333"/>
<path d="M129.519 290.879C130.528 290.069 131.319 289.405 131.892 288.888C132.464 288.363 132.945 287.819 133.335 287.254C133.732 286.682 133.931 286.121 133.931 285.573C133.931 285.056 133.804 284.651 133.549 284.357C133.303 284.054 132.901 283.903 132.345 283.903C131.804 283.903 131.383 284.074 131.081 284.416C130.787 284.75 130.628 285.199 130.604 285.764H129.554C129.586 284.873 129.857 284.186 130.365 283.701C130.874 283.216 131.53 282.973 132.333 282.973C133.152 282.973 133.8 283.2 134.277 283.653C134.762 284.106 135.004 284.73 135.004 285.525C135.004 286.185 134.805 286.829 134.408 287.457C134.018 288.077 133.573 288.626 133.072 289.103C132.572 289.572 131.932 290.12 131.152 290.748H135.255V291.655H129.519V290.879ZM136.223 284.118V283.128H138.465V291.75H137.368V284.118H136.223Z" fill="#333333"/>
<path d="M127.667 330.629C128.677 329.819 129.468 329.155 130.04 328.638C130.613 328.113 131.094 327.569 131.483 327.004C131.881 326.432 132.079 325.871 132.079 325.323C132.079 324.806 131.952 324.401 131.698 324.107C131.451 323.804 131.05 323.653 130.493 323.653C129.953 323.653 129.531 323.824 129.229 324.166C128.935 324.5 128.776 324.949 128.752 325.514H127.703C127.735 324.623 128.005 323.936 128.514 323.451C129.023 322.966 129.678 322.723 130.481 322.723C131.3 322.723 131.948 322.95 132.425 323.403C132.91 323.856 133.153 324.48 133.153 325.275C133.153 325.935 132.954 326.579 132.556 327.207C132.167 327.827 131.722 328.376 131.221 328.853C130.72 329.322 130.08 329.87 129.301 330.498H133.403V331.405H127.667V330.629ZM136.232 327.016C135.786 326.841 135.445 326.587 135.206 326.253C134.968 325.919 134.848 325.514 134.848 325.037C134.848 324.607 134.956 324.222 135.17 323.88C135.385 323.53 135.703 323.256 136.124 323.057C136.554 322.85 137.07 322.747 137.674 322.747C138.279 322.747 138.791 322.85 139.213 323.057C139.642 323.256 139.964 323.53 140.179 323.88C140.401 324.222 140.513 324.607 140.513 325.037C140.513 325.498 140.389 325.903 140.143 326.253C139.897 326.595 139.559 326.849 139.129 327.016C139.622 327.167 140.012 327.434 140.298 327.815C140.592 328.189 140.739 328.642 140.739 329.175C140.739 329.691 140.612 330.145 140.358 330.534C140.103 330.916 139.741 331.214 139.272 331.428C138.811 331.635 138.279 331.738 137.674 331.738C137.07 331.738 136.538 331.635 136.077 331.428C135.623 331.214 135.27 330.916 135.015 330.534C134.761 330.145 134.634 329.691 134.634 329.175C134.634 328.642 134.777 328.185 135.063 327.803C135.349 327.422 135.739 327.159 136.232 327.016ZM139.463 325.168C139.463 324.683 139.304 324.309 138.986 324.047C138.668 323.785 138.231 323.653 137.674 323.653C137.126 323.653 136.693 323.785 136.375 324.047C136.057 324.309 135.898 324.687 135.898 325.18C135.898 325.625 136.061 325.983 136.387 326.253C136.72 326.523 137.15 326.658 137.674 326.658C138.207 326.658 138.636 326.523 138.962 326.253C139.296 325.975 139.463 325.613 139.463 325.168ZM137.674 327.493C137.086 327.493 136.605 327.632 136.232 327.911C135.858 328.181 135.671 328.59 135.671 329.139C135.671 329.648 135.85 330.057 136.208 330.367C136.573 330.677 137.062 330.832 137.674 330.832C138.287 330.832 138.772 330.677 139.129 330.367C139.487 330.057 139.666 329.648 139.666 329.139C139.666 328.606 139.483 328.201 139.117 327.923C138.752 327.636 138.271 327.493 137.674 327.493Z" fill="#333333"/>
<path d="M169.18 124.438V125.321H166.915V132.75H165.83V125.321H163.552V124.438H169.18ZM173.76 126.096C174.253 126.096 174.698 126.203 175.095 126.418C175.493 126.625 175.803 126.939 176.026 127.36C176.256 127.781 176.371 128.294 176.371 128.898V132.75H175.298V129.053C175.298 128.401 175.135 127.904 174.809 127.563C174.483 127.213 174.038 127.038 173.474 127.038C172.901 127.038 172.444 127.217 172.102 127.575C171.768 127.932 171.601 128.453 171.601 129.137V132.75H170.516V123.926H171.601V127.145C171.816 126.811 172.11 126.553 172.484 126.37C172.865 126.187 173.291 126.096 173.76 126.096ZM183.94 126.215V132.75H182.854V131.784C182.648 132.118 182.358 132.38 181.984 132.571C181.618 132.754 181.213 132.845 180.768 132.845C180.259 132.845 179.802 132.742 179.396 132.535C178.991 132.321 178.669 132.003 178.43 131.581C178.2 131.16 178.084 130.647 178.084 130.043V126.215H179.158V129.9C179.158 130.544 179.321 131.041 179.647 131.391C179.973 131.732 180.418 131.903 180.982 131.903C181.563 131.903 182.02 131.724 182.354 131.367C182.687 131.009 182.854 130.488 182.854 129.805V126.215H183.94Z" fill="#7c3aed"/>
<path d="M169.085 168.1C169.085 166.732 169.308 165.667 169.753 164.904C170.198 164.133 170.978 163.747 172.091 163.747C173.196 163.747 173.971 164.133 174.416 164.904C174.861 165.667 175.084 166.732 175.084 168.1C175.084 169.491 174.861 170.572 174.416 171.343C173.971 172.114 173.196 172.5 172.091 172.5C170.978 172.5 170.198 172.114 169.753 171.343C169.308 170.572 169.085 169.491 169.085 168.1ZM174.01 168.1C174.01 167.408 173.963 166.824 173.867 166.347C173.78 165.862 173.593 165.472 173.307 165.178C173.029 164.884 172.623 164.737 172.091 164.737C171.55 164.737 171.137 164.884 170.85 165.178C170.572 165.472 170.385 165.862 170.29 166.347C170.202 166.824 170.159 167.408 170.159 168.1C170.159 168.815 170.202 169.415 170.29 169.9C170.385 170.385 170.572 170.775 170.85 171.069C171.137 171.363 171.55 171.51 172.091 171.51C172.623 171.51 173.029 171.363 173.307 171.069C173.593 170.775 173.78 170.385 173.867 169.9C173.963 169.415 174.01 168.815 174.01 168.1ZM176.287 164.868V163.878H178.529V172.5H177.432V164.868H176.287Z" fill="#333333"/>
<rect x="154.622" y="188.872" width="38.7562" height="38.7562" rx="9.44062" stroke="#7c3aed" stroke-width="0.99375"/>
<path d="M167.234 207.85C167.234 206.482 167.456 205.417 167.902 204.654C168.347 203.883 169.126 203.497 170.239 203.497C171.344 203.497 172.119 203.883 172.564 204.654C173.009 205.417 173.232 206.482 173.232 207.85C173.232 209.241 173.009 210.322 172.564 211.093C172.119 211.864 171.344 212.25 170.239 212.25C169.126 212.25 168.347 211.864 167.902 211.093C167.456 210.322 167.234 209.241 167.234 207.85ZM172.159 207.85C172.159 207.158 172.111 206.574 172.016 206.097C171.928 205.612 171.741 205.222 171.455 204.928C171.177 204.634 170.772 204.487 170.239 204.487C169.698 204.487 169.285 204.634 168.999 204.928C168.72 205.222 168.534 205.612 168.438 206.097C168.351 206.574 168.307 207.158 168.307 207.85C168.307 208.565 168.351 209.165 168.438 209.65C168.534 210.135 168.72 210.525 168.999 210.819C169.285 211.113 169.698 211.26 170.239 211.26C170.772 211.26 171.177 211.113 171.455 210.819C171.741 210.525 171.928 210.135 172.016 209.65C172.111 209.165 172.159 208.565 172.159 207.85ZM176.296 207.766C175.851 207.591 175.509 207.337 175.27 207.003C175.032 206.669 174.913 206.264 174.913 205.787C174.913 205.357 175.02 204.972 175.235 204.63C175.449 204.28 175.767 204.006 176.189 203.807C176.618 203.6 177.135 203.497 177.739 203.497C178.343 203.497 178.856 203.6 179.277 203.807C179.707 204.006 180.029 204.28 180.243 204.63C180.466 204.972 180.577 205.357 180.577 205.787C180.577 206.248 180.454 206.653 180.207 207.003C179.961 207.345 179.623 207.599 179.194 207.766C179.687 207.917 180.076 208.184 180.362 208.565C180.657 208.939 180.804 209.392 180.804 209.925C180.804 210.441 180.676 210.895 180.422 211.284C180.168 211.666 179.806 211.964 179.337 212.178C178.876 212.385 178.343 212.488 177.739 212.488C177.135 212.488 176.602 212.385 176.141 212.178C175.688 211.964 175.334 211.666 175.08 211.284C174.825 210.895 174.698 210.441 174.698 209.925C174.698 209.392 174.841 208.935 175.127 208.553C175.414 208.172 175.803 207.909 176.296 207.766ZM179.528 205.918C179.528 205.433 179.369 205.059 179.051 204.797C178.733 204.535 178.295 204.403 177.739 204.403C177.19 204.403 176.757 204.535 176.439 204.797C176.121 205.059 175.962 205.437 175.962 205.93C175.962 206.375 176.125 206.733 176.451 207.003C176.785 207.273 177.214 207.408 177.739 207.408C178.272 207.408 178.701 207.273 179.027 207.003C179.361 206.725 179.528 206.363 179.528 205.918ZM177.739 208.243C177.151 208.243 176.67 208.382 176.296 208.661C175.922 208.931 175.736 209.34 175.736 209.889C175.736 210.398 175.914 210.807 176.272 211.117C176.638 211.427 177.127 211.582 177.739 211.582C178.351 211.582 178.836 211.427 179.194 211.117C179.552 210.807 179.73 210.398 179.73 209.889C179.73 209.356 179.548 208.951 179.182 208.673C178.816 208.386 178.335 208.243 177.739 208.243Z" fill="#7c3aed"/>
<path d="M168.799 244.368V243.378H171.041V252H169.944V244.368H168.799ZM178.403 244.32H174.217V247.039C174.4 246.785 174.67 246.578 175.028 246.419C175.386 246.252 175.771 246.169 176.185 246.169C176.844 246.169 177.381 246.308 177.794 246.586C178.208 246.856 178.502 247.21 178.677 247.647C178.86 248.077 178.951 248.534 178.951 249.019C178.951 249.591 178.844 250.104 178.629 250.557C178.415 251.01 178.085 251.368 177.639 251.63C177.202 251.893 176.658 252.024 176.006 252.024C175.171 252.024 174.495 251.809 173.978 251.38C173.462 250.951 173.148 250.378 173.036 249.663H174.098C174.201 250.116 174.42 250.47 174.754 250.724C175.087 250.978 175.509 251.106 176.018 251.106C176.646 251.106 177.119 250.919 177.437 250.545C177.755 250.164 177.914 249.663 177.914 249.043C177.914 248.423 177.755 247.946 177.437 247.612C177.119 247.27 176.65 247.099 176.03 247.099C175.608 247.099 175.239 247.202 174.921 247.409C174.61 247.608 174.384 247.882 174.241 248.232H173.215V243.366H178.403V244.32Z" fill="#333333"/>
<path d="M167.749 290.879C168.759 290.069 169.55 289.405 170.122 288.888C170.694 288.363 171.175 287.819 171.565 287.254C171.962 286.682 172.161 286.121 172.161 285.573C172.161 285.056 172.034 284.651 171.78 284.357C171.533 284.054 171.132 283.903 170.575 283.903C170.035 283.903 169.613 284.074 169.311 284.416C169.017 284.75 168.858 285.199 168.834 285.764H167.785C167.817 284.873 168.087 284.186 168.596 283.701C169.104 283.216 169.76 282.973 170.563 282.973C171.382 282.973 172.03 283.2 172.507 283.653C172.992 284.106 173.234 284.73 173.234 285.525C173.234 286.185 173.036 286.829 172.638 287.457C172.249 288.077 171.803 288.626 171.303 289.103C170.802 289.572 170.162 290.12 169.383 290.748H173.485V291.655H167.749V290.879ZM174.608 290.879C175.618 290.069 176.409 289.405 176.981 288.888C177.554 288.363 178.035 287.819 178.424 287.254C178.822 286.682 179.02 286.121 179.02 285.573C179.02 285.056 178.893 284.651 178.639 284.357C178.392 284.054 177.991 283.903 177.434 283.903C176.894 283.903 176.472 284.074 176.17 284.416C175.876 284.75 175.717 285.199 175.693 285.764H174.644C174.676 284.873 174.946 284.186 175.455 283.701C175.964 283.216 176.62 282.973 177.422 282.973C178.241 282.973 178.889 283.2 179.366 283.653C179.851 284.106 180.094 284.73 180.094 285.525C180.094 286.185 179.895 286.829 179.497 287.457C179.108 288.077 178.663 288.626 178.162 289.103C177.661 289.572 177.021 290.12 176.242 290.748H180.344V291.655H174.608V290.879Z" fill="#333333"/>
<path d="M167.423 330.629C168.433 329.819 169.224 329.155 169.796 328.638C170.368 328.113 170.849 327.569 171.239 327.004C171.636 326.432 171.835 325.871 171.835 325.323C171.835 324.806 171.708 324.401 171.454 324.107C171.207 323.804 170.806 323.653 170.249 323.653C169.709 323.653 169.287 323.824 168.985 324.166C168.691 324.5 168.532 324.949 168.508 325.514H167.459C167.49 324.623 167.761 323.936 168.27 323.451C168.778 322.966 169.434 322.723 170.237 322.723C171.056 322.723 171.704 322.95 172.181 323.403C172.666 323.856 172.908 324.48 172.908 325.275C172.908 325.935 172.71 326.579 172.312 327.207C171.923 327.827 171.477 328.376 170.977 328.853C170.476 329.322 169.836 329.87 169.057 330.498H173.159V331.405H167.423V330.629ZM175.809 329.187C175.888 329.64 176.071 329.99 176.357 330.236C176.651 330.482 177.045 330.606 177.538 330.606C178.197 330.606 178.682 330.347 178.992 329.831C179.31 329.314 179.462 328.443 179.446 327.219C179.279 327.577 179 327.859 178.611 328.066C178.221 328.264 177.788 328.364 177.311 328.364C176.778 328.364 176.301 328.256 175.88 328.042C175.467 327.819 175.141 327.497 174.902 327.076C174.664 326.654 174.544 326.146 174.544 325.549C174.544 324.699 174.791 324.015 175.284 323.498C175.777 322.974 176.476 322.711 177.383 322.711C178.496 322.711 179.275 323.073 179.72 323.796C180.173 324.52 180.4 325.597 180.4 327.028C180.4 328.03 180.308 328.857 180.125 329.509C179.95 330.16 179.648 330.657 179.219 330.999C178.798 331.341 178.217 331.512 177.478 331.512C176.667 331.512 176.035 331.293 175.582 330.856C175.129 330.419 174.87 329.862 174.807 329.187H175.809ZM177.49 327.446C178.023 327.446 178.46 327.283 178.802 326.957C179.144 326.623 179.314 326.174 179.314 325.609C179.314 325.013 179.148 324.532 178.814 324.166C178.48 323.8 178.011 323.618 177.406 323.618C176.85 323.618 176.405 323.792 176.071 324.142C175.745 324.492 175.582 324.953 175.582 325.526C175.582 326.106 175.745 326.571 176.071 326.921C176.397 327.271 176.87 327.446 177.49 327.446Z" fill="#333333"/>
<path d="M212.671 124.438V125.321H209.057V128.123H211.991V129.006H209.057V132.75H207.972V124.438H212.671ZM215.066 127.276C215.257 126.903 215.527 126.613 215.877 126.406C216.235 126.199 216.668 126.096 217.177 126.096V127.217H216.891C215.674 127.217 215.066 127.877 215.066 129.196V132.75H213.981V126.215H215.066V127.276ZM218.99 125.154C218.783 125.154 218.609 125.082 218.465 124.939C218.322 124.796 218.251 124.621 218.251 124.414C218.251 124.208 218.322 124.033 218.465 123.89C218.609 123.747 218.783 123.675 218.99 123.675C219.189 123.675 219.356 123.747 219.491 123.89C219.634 124.033 219.706 124.208 219.706 124.414C219.706 124.621 219.634 124.796 219.491 124.939C219.356 125.082 219.189 125.154 218.99 125.154ZM219.515 126.215V132.75H218.43V126.215H219.515Z" fill="#7c3aed"/>
<path d="M207.316 168.1C207.316 166.732 207.538 165.667 207.984 164.904C208.429 164.133 209.208 163.747 210.321 163.747C211.426 163.747 212.201 164.133 212.646 164.904C213.091 165.667 213.314 166.732 213.314 168.1C213.314 169.491 213.091 170.572 212.646 171.343C212.201 172.114 211.426 172.5 210.321 172.5C209.208 172.5 208.429 172.114 207.984 171.343C207.538 170.572 207.316 169.491 207.316 168.1ZM212.241 168.1C212.241 167.408 212.193 166.824 212.098 166.347C212.01 165.862 211.823 165.472 211.537 165.178C211.259 164.884 210.853 164.737 210.321 164.737C209.78 164.737 209.367 164.884 209.081 165.178C208.802 165.472 208.616 165.862 208.52 166.347C208.433 166.824 208.389 167.408 208.389 168.1C208.389 168.815 208.433 169.415 208.52 169.9C208.616 170.385 208.802 170.775 209.081 171.069C209.367 171.363 209.78 171.51 210.321 171.51C210.853 171.51 211.259 171.363 211.537 171.069C211.823 170.775 212.01 170.385 212.098 169.9C212.193 169.415 212.241 168.815 212.241 168.1ZM214.673 171.629C215.682 170.819 216.473 170.155 217.046 169.638C217.618 169.113 218.099 168.569 218.489 168.004C218.886 167.432 219.085 166.871 219.085 166.323C219.085 165.806 218.958 165.401 218.703 165.107C218.457 164.804 218.055 164.653 217.499 164.653C216.958 164.653 216.537 164.824 216.235 165.166C215.941 165.5 215.782 165.949 215.758 166.514H214.708C214.74 165.623 215.01 164.936 215.519 164.451C216.028 163.966 216.684 163.723 217.487 163.723C218.306 163.723 218.954 163.95 219.431 164.403C219.916 164.856 220.158 165.48 220.158 166.275C220.158 166.935 219.959 167.579 219.562 168.207C219.172 168.827 218.727 169.376 218.226 169.853C217.725 170.322 217.085 170.87 216.306 171.498H220.409V172.405H214.673V171.629Z" fill="#333333"/>
<path d="M206.99 207.85C206.99 206.482 207.212 205.417 207.657 204.654C208.103 203.883 208.882 203.497 209.995 203.497C211.1 203.497 211.875 203.883 212.32 204.654C212.765 205.417 212.988 206.482 212.988 207.85C212.988 209.241 212.765 210.322 212.32 211.093C211.875 211.864 211.1 212.25 209.995 212.25C208.882 212.25 208.103 211.864 207.657 211.093C207.212 210.322 206.99 209.241 206.99 207.85ZM211.915 207.85C211.915 207.158 211.867 206.574 211.772 206.097C211.684 205.612 211.497 205.222 211.211 204.928C210.933 204.634 210.527 204.487 209.995 204.487C209.454 204.487 209.041 204.634 208.755 204.928C208.476 205.222 208.289 205.612 208.194 206.097C208.107 206.574 208.063 207.158 208.063 207.85C208.063 208.565 208.107 209.165 208.194 209.65C208.289 210.135 208.476 210.525 208.755 210.819C209.041 211.113 209.454 211.26 209.995 211.26C210.527 211.26 210.933 211.113 211.211 210.819C211.497 210.525 211.684 210.135 211.772 209.65C211.867 209.165 211.915 208.565 211.915 207.85ZM215.873 209.937C215.952 210.39 216.135 210.74 216.421 210.986C216.716 211.232 217.109 211.356 217.602 211.356C218.262 211.356 218.747 211.097 219.057 210.581C219.375 210.064 219.526 209.193 219.51 207.969C219.343 208.327 219.065 208.609 218.675 208.816C218.286 209.014 217.852 209.114 217.375 209.114C216.843 209.114 216.366 209.006 215.944 208.792C215.531 208.569 215.205 208.247 214.967 207.826C214.728 207.404 214.609 206.896 214.609 206.299C214.609 205.449 214.855 204.765 215.348 204.248C215.841 203.724 216.541 203.461 217.447 203.461C218.56 203.461 219.339 203.823 219.784 204.546C220.237 205.27 220.464 206.347 220.464 207.778C220.464 208.78 220.373 209.607 220.19 210.259C220.015 210.91 219.713 211.407 219.283 211.749C218.862 212.091 218.282 212.262 217.542 212.262C216.732 212.262 216.1 212.043 215.646 211.606C215.193 211.169 214.935 210.612 214.871 209.937H215.873ZM217.554 208.196C218.087 208.196 218.524 208.033 218.866 207.707C219.208 207.373 219.379 206.924 219.379 206.359C219.379 205.763 219.212 205.282 218.878 204.916C218.544 204.55 218.075 204.368 217.471 204.368C216.914 204.368 216.469 204.542 216.135 204.892C215.809 205.242 215.646 205.703 215.646 206.276C215.646 206.856 215.809 207.321 216.135 207.671C216.461 208.021 216.934 208.196 217.554 208.196Z" fill="#333333"/>
<path d="M208.508 244.368V243.378H210.75V252H209.653V244.368H208.508ZM217.42 245.429C217.245 244.547 216.701 244.106 215.786 244.106C215.079 244.106 214.55 244.38 214.2 244.928C213.851 245.469 213.68 246.363 213.688 247.612C213.871 247.198 214.173 246.876 214.594 246.646C215.023 246.407 215.5 246.288 216.025 246.288C216.844 246.288 217.496 246.542 217.981 247.051C218.474 247.56 218.72 248.264 218.72 249.162C218.72 249.702 218.613 250.187 218.398 250.617C218.191 251.046 217.873 251.388 217.444 251.642C217.023 251.897 216.51 252.024 215.906 252.024C215.087 252.024 214.447 251.841 213.986 251.475C213.525 251.11 213.203 250.605 213.02 249.961C212.837 249.317 212.746 248.522 212.746 247.576C212.746 244.658 213.763 243.199 215.798 243.199C216.577 243.199 217.19 243.41 217.635 243.831C218.08 244.253 218.342 244.785 218.422 245.429H217.42ZM215.798 247.206C215.457 247.206 215.135 247.278 214.832 247.421C214.53 247.556 214.284 247.767 214.093 248.053C213.91 248.331 213.819 248.673 213.819 249.078C213.819 249.683 213.994 250.175 214.344 250.557C214.693 250.931 215.194 251.118 215.846 251.118C216.403 251.118 216.844 250.947 217.17 250.605C217.504 250.255 217.671 249.786 217.671 249.198C217.671 248.578 217.512 248.093 217.194 247.743C216.876 247.385 216.411 247.206 215.798 247.206Z" fill="#333333"/>
<path d="M207.417 290.879C208.427 290.069 209.218 289.405 209.791 288.888C210.363 288.363 210.844 287.819 211.233 287.254C211.631 286.682 211.83 286.121 211.83 285.573C211.83 285.056 211.703 284.651 211.448 284.357C211.202 284.054 210.8 283.903 210.244 283.903C209.703 283.903 209.282 284.074 208.98 284.416C208.685 284.75 208.526 285.199 208.503 285.764H207.453C207.485 284.873 207.755 284.186 208.264 283.701C208.773 283.216 209.429 282.973 210.232 282.973C211.051 282.973 211.699 283.2 212.176 283.653C212.66 284.106 212.903 284.73 212.903 285.525C212.903 286.185 212.704 286.829 212.307 287.457C211.917 288.077 211.472 288.626 210.971 289.103C210.47 289.572 209.83 290.12 209.051 290.748H213.153V291.655H207.417V290.879ZM214.384 285.299C214.44 284.567 214.722 283.995 215.231 283.581C215.739 283.168 216.399 282.961 217.21 282.961C217.751 282.961 218.216 283.061 218.605 283.259C219.003 283.45 219.301 283.713 219.5 284.046C219.707 284.38 219.81 284.758 219.81 285.179C219.81 285.672 219.667 286.098 219.381 286.455C219.102 286.813 218.737 287.044 218.283 287.147V287.207C218.8 287.334 219.21 287.584 219.512 287.958C219.814 288.332 219.965 288.82 219.965 289.425C219.965 289.878 219.862 290.287 219.655 290.653C219.448 291.011 219.138 291.293 218.725 291.5C218.311 291.706 217.814 291.81 217.234 291.81C216.391 291.81 215.7 291.591 215.159 291.154C214.619 290.709 214.316 290.081 214.253 289.27H215.302C215.358 289.747 215.553 290.136 215.887 290.438C216.22 290.74 216.666 290.891 217.222 290.891C217.779 290.891 218.2 290.748 218.486 290.462C218.78 290.168 218.927 289.79 218.927 289.329C218.927 288.733 218.729 288.304 218.331 288.041C217.934 287.779 217.333 287.648 216.53 287.648H216.256V286.742H216.542C217.274 286.734 217.826 286.614 218.2 286.384C218.574 286.145 218.76 285.78 218.76 285.287C218.76 284.865 218.621 284.527 218.343 284.273C218.073 284.019 217.683 283.891 217.174 283.891C216.682 283.891 216.284 284.019 215.982 284.273C215.68 284.527 215.501 284.869 215.445 285.299H214.384Z" fill="#333333"/>
<path d="M207.21 325.049C207.266 324.317 207.548 323.745 208.057 323.331C208.566 322.918 209.226 322.711 210.037 322.711C210.577 322.711 211.042 322.811 211.432 323.009C211.829 323.2 212.127 323.463 212.326 323.796C212.533 324.13 212.636 324.508 212.636 324.929C212.636 325.422 212.493 325.848 212.207 326.205C211.929 326.563 211.563 326.794 211.11 326.897V326.957C211.627 327.084 212.036 327.334 212.338 327.708C212.64 328.082 212.791 328.57 212.791 329.175C212.791 329.628 212.688 330.037 212.481 330.403C212.274 330.761 211.964 331.043 211.551 331.25C211.138 331.456 210.641 331.56 210.06 331.56C209.218 331.56 208.526 331.341 207.985 330.904C207.445 330.459 207.143 329.831 207.079 329.02H208.129C208.184 329.497 208.379 329.886 208.713 330.188C209.047 330.49 209.492 330.641 210.048 330.641C210.605 330.641 211.026 330.498 211.313 330.212C211.607 329.918 211.754 329.54 211.754 329.079C211.754 328.483 211.555 328.054 211.158 327.791C210.76 327.529 210.16 327.398 209.357 327.398H209.083V326.492H209.369C210.1 326.484 210.653 326.364 211.026 326.134C211.4 325.895 211.587 325.53 211.587 325.037C211.587 324.615 211.448 324.277 211.169 324.023C210.899 323.769 210.51 323.641 210.001 323.641C209.508 323.641 209.11 323.769 208.808 324.023C208.506 324.277 208.327 324.619 208.272 325.049H207.21ZM214.256 327.1C214.256 325.732 214.479 324.667 214.924 323.904C215.369 323.133 216.149 322.747 217.262 322.747C218.367 322.747 219.142 323.133 219.587 323.904C220.032 324.667 220.255 325.732 220.255 327.1C220.255 328.491 220.032 329.572 219.587 330.343C219.142 331.114 218.367 331.5 217.262 331.5C216.149 331.5 215.369 331.114 214.924 330.343C214.479 329.572 214.256 328.491 214.256 327.1ZM219.181 327.1C219.181 326.408 219.134 325.824 219.038 325.347C218.951 324.862 218.764 324.472 218.478 324.178C218.2 323.884 217.794 323.737 217.262 323.737C216.721 323.737 216.308 323.884 216.021 324.178C215.743 324.472 215.556 324.862 215.461 325.347C215.373 325.824 215.33 326.408 215.33 327.1C215.33 327.815 215.373 328.415 215.461 328.9C215.556 329.385 215.743 329.775 216.021 330.069C216.308 330.363 216.721 330.51 217.262 330.51C217.794 330.51 218.2 330.363 218.478 330.069C218.764 329.775 218.951 329.385 219.038 328.9C219.134 328.415 219.181 327.815 219.181 327.1Z" fill="#333333"/>
<path d="M247.353 132.833C246.804 132.833 246.311 132.738 245.874 132.547C245.445 132.349 245.107 132.078 244.861 131.736C244.614 131.387 244.487 130.985 244.479 130.532H245.636C245.675 130.922 245.834 131.251 246.113 131.522C246.399 131.784 246.812 131.915 247.353 131.915C247.87 131.915 248.275 131.788 248.569 131.534C248.871 131.271 249.022 130.937 249.022 130.532C249.022 130.214 248.935 129.956 248.76 129.757C248.585 129.558 248.367 129.407 248.104 129.304C247.842 129.2 247.488 129.089 247.043 128.97C246.494 128.827 246.053 128.684 245.719 128.54C245.393 128.397 245.111 128.175 244.873 127.873C244.642 127.563 244.527 127.149 244.527 126.632C244.527 126.179 244.642 125.778 244.873 125.428C245.103 125.078 245.425 124.808 245.838 124.617C246.26 124.426 246.741 124.331 247.281 124.331C248.06 124.331 248.696 124.526 249.189 124.915C249.69 125.305 249.972 125.822 250.036 126.466H248.844C248.804 126.148 248.637 125.869 248.343 125.631C248.049 125.384 247.659 125.261 247.174 125.261C246.721 125.261 246.351 125.38 246.065 125.619C245.779 125.849 245.636 126.175 245.636 126.597C245.636 126.899 245.719 127.145 245.886 127.336C246.061 127.527 246.272 127.674 246.518 127.777C246.773 127.873 247.126 127.984 247.58 128.111C248.128 128.262 248.569 128.413 248.903 128.564C249.237 128.707 249.523 128.934 249.762 129.244C250 129.546 250.12 129.96 250.12 130.484C250.12 130.89 250.012 131.271 249.798 131.629C249.583 131.987 249.265 132.277 248.844 132.5C248.422 132.722 247.925 132.833 247.353 132.833ZM251.311 129.459C251.311 128.791 251.446 128.207 251.716 127.706C251.987 127.197 252.356 126.803 252.825 126.525C253.302 126.247 253.831 126.108 254.412 126.108C254.984 126.108 255.481 126.231 255.902 126.477C256.323 126.724 256.638 127.034 256.844 127.408V126.215H257.941V132.75H256.844V131.534C256.63 131.915 256.308 132.233 255.878 132.488C255.457 132.734 254.964 132.857 254.4 132.857C253.819 132.857 253.295 132.714 252.825 132.428C252.356 132.142 251.987 131.74 251.716 131.224C251.446 130.707 251.311 130.119 251.311 129.459ZM256.844 129.471C256.844 128.978 256.745 128.548 256.546 128.183C256.347 127.817 256.077 127.539 255.735 127.348C255.401 127.149 255.032 127.05 254.626 127.05C254.221 127.05 253.851 127.145 253.517 127.336C253.183 127.527 252.917 127.805 252.718 128.171C252.519 128.537 252.42 128.966 252.42 129.459C252.42 129.96 252.519 130.397 252.718 130.77C252.917 131.136 253.183 131.418 253.517 131.617C253.851 131.808 254.221 131.903 254.626 131.903C255.032 131.903 255.401 131.808 255.735 131.617C256.077 131.418 256.347 131.136 256.546 130.77C256.745 130.397 256.844 129.964 256.844 129.471ZM261.099 127.109V130.961C261.099 131.279 261.166 131.506 261.302 131.641C261.437 131.768 261.671 131.832 262.005 131.832H262.804V132.75H261.826C261.222 132.75 260.769 132.611 260.467 132.333C260.165 132.054 260.014 131.597 260.014 130.961V127.109H259.167V126.215H260.014V124.569H261.099V126.215H262.804V127.109H261.099Z" fill="#7c3aed"/>
<path d="M246.984 168.1C246.984 166.732 247.207 165.667 247.652 164.904C248.097 164.133 248.876 163.747 249.989 163.747C251.094 163.747 251.869 164.133 252.315 164.904C252.76 165.667 252.982 166.732 252.982 168.1C252.982 169.491 252.76 170.572 252.315 171.343C251.869 172.114 251.094 172.5 249.989 172.5C248.876 172.5 248.097 172.114 247.652 171.343C247.207 170.572 246.984 169.491 246.984 168.1ZM251.909 168.1C251.909 167.408 251.862 166.824 251.766 166.347C251.679 165.862 251.492 165.472 251.206 165.178C250.927 164.884 250.522 164.737 249.989 164.737C249.449 164.737 249.035 164.884 248.749 165.178C248.471 165.472 248.284 165.862 248.189 166.347C248.101 166.824 248.057 167.408 248.057 168.1C248.057 168.815 248.101 169.415 248.189 169.9C248.284 170.385 248.471 170.775 248.749 171.069C249.035 171.363 249.449 171.51 249.989 171.51C250.522 171.51 250.927 171.363 251.206 171.069C251.492 170.775 251.679 170.385 251.766 169.9C251.862 169.415 251.909 168.815 251.909 168.1ZM254.448 166.049C254.504 165.317 254.786 164.745 255.295 164.331C255.804 163.918 256.464 163.711 257.275 163.711C257.815 163.711 258.28 163.811 258.67 164.009C259.067 164.2 259.365 164.463 259.564 164.796C259.771 165.13 259.874 165.508 259.874 165.929C259.874 166.422 259.731 166.848 259.445 167.205C259.167 167.563 258.801 167.794 258.348 167.897V167.957C258.865 168.084 259.274 168.334 259.576 168.708C259.878 169.082 260.029 169.57 260.029 170.175C260.029 170.628 259.926 171.037 259.719 171.403C259.513 171.761 259.203 172.043 258.789 172.25C258.376 172.456 257.879 172.56 257.298 172.56C256.456 172.56 255.764 172.341 255.224 171.904C254.683 171.459 254.381 170.831 254.317 170.02H255.367C255.422 170.497 255.617 170.886 255.951 171.188C256.285 171.49 256.73 171.641 257.287 171.641C257.843 171.641 258.264 171.498 258.551 171.212C258.845 170.918 258.992 170.54 258.992 170.079C258.992 169.483 258.793 169.054 258.396 168.791C257.998 168.529 257.398 168.398 256.595 168.398H256.321V167.492H256.607C257.338 167.484 257.891 167.364 258.264 167.134C258.638 166.895 258.825 166.53 258.825 166.037C258.825 165.615 258.686 165.277 258.408 165.023C258.137 164.769 257.748 164.641 257.239 164.641C256.746 164.641 256.348 164.769 256.046 165.023C255.744 165.277 255.565 165.619 255.51 166.049H254.448Z" fill="#333333"/>
<path d="M248.299 204.618V203.628H250.541V212.25H249.444V204.618H248.299ZM252.405 207.85C252.405 206.482 252.628 205.417 253.073 204.654C253.518 203.883 254.297 203.497 255.41 203.497C256.515 203.497 257.29 203.883 257.736 204.654C258.181 205.417 258.403 206.482 258.403 207.85C258.403 209.241 258.181 210.322 257.736 211.093C257.29 211.864 256.515 212.25 255.41 212.25C254.297 212.25 253.518 211.864 253.073 211.093C252.628 210.322 252.405 209.241 252.405 207.85ZM257.33 207.85C257.33 207.158 257.283 206.574 257.187 206.097C257.1 205.612 256.913 205.222 256.627 204.928C256.348 204.634 255.943 204.487 255.41 204.487C254.87 204.487 254.456 204.634 254.17 204.928C253.892 205.222 253.705 205.612 253.61 206.097C253.522 206.574 253.478 207.158 253.478 207.85C253.478 208.565 253.522 209.165 253.61 209.65C253.705 210.135 253.892 210.525 254.17 210.819C254.456 211.113 254.87 211.26 255.41 211.26C255.943 211.26 256.348 211.113 256.627 210.819C256.913 210.525 257.1 210.135 257.187 209.65C257.283 209.165 257.33 208.565 257.33 207.85Z" fill="#333333"/>
<rect x="233.625" y="228.125" width="39.75" height="39.75" rx="9.9375" fill="#5038ED"/>
<path d="M248.788 244.368V243.378H251.03V252H249.933V244.368H248.788ZM258.201 244.225L254.886 252H253.789L257.152 244.332H252.548V243.402H258.201V244.225Z" fill="#F3F1FF"/>
<path d="M246.929 290.879C247.938 290.069 248.729 289.405 249.302 288.888C249.874 288.363 250.355 287.819 250.745 287.254C251.142 286.682 251.341 286.121 251.341 285.573C251.341 285.056 251.214 284.651 250.959 284.357C250.713 284.054 250.311 283.903 249.755 283.903C249.214 283.903 248.793 284.074 248.491 284.416C248.197 284.75 248.038 285.199 248.014 285.764H246.964C246.996 284.873 247.267 284.186 247.775 283.701C248.284 283.216 248.94 282.973 249.743 282.973C250.562 282.973 251.21 283.2 251.687 283.653C252.172 284.106 252.414 284.73 252.414 285.525C252.414 286.185 252.215 286.829 251.818 287.457C251.428 288.077 250.983 288.626 250.482 289.103C249.982 289.572 249.342 290.12 248.562 290.748H252.665V291.655H246.929V290.879ZM253.657 289.83V289.007L257.842 283.212H259.142V288.888H260.335V289.83H259.142V291.75H258.069V289.83H253.657ZM258.117 284.345L254.909 288.888H258.117V284.345Z" fill="#333333"/>
<path d="M248.585 327.1C248.585 325.732 248.808 324.667 249.253 323.904C249.698 323.133 250.478 322.747 251.591 322.747C252.696 322.747 253.471 323.133 253.916 323.904C254.361 324.667 254.584 325.732 254.584 327.1C254.584 328.491 254.361 329.572 253.916 330.343C253.471 331.114 252.696 331.5 251.591 331.5C250.478 331.5 249.698 331.114 249.253 330.343C248.808 329.572 248.585 328.491 248.585 327.1ZM253.51 327.1C253.51 326.408 253.463 325.824 253.367 325.347C253.28 324.862 253.093 324.472 252.807 324.178C252.529 323.884 252.123 323.737 251.591 323.737C251.05 323.737 250.637 323.884 250.35 324.178C250.072 324.472 249.885 324.862 249.79 325.347C249.702 325.824 249.659 326.408 249.659 327.1C249.659 327.815 249.702 328.415 249.79 328.9C249.885 329.385 250.072 329.775 250.35 330.069C250.637 330.363 251.05 330.51 251.591 330.51C252.123 330.51 252.529 330.363 252.807 330.069C253.093 329.775 253.28 329.385 253.367 328.9C253.463 328.415 253.51 327.815 253.51 327.1ZM255.787 323.868V322.878H258.029V331.5H256.932V323.868H255.787Z" fill="#7c3aed"/>
<path d="M285.676 132.833C285.128 132.833 284.635 132.738 284.198 132.547C283.768 132.349 283.43 132.078 283.184 131.736C282.938 131.387 282.81 130.985 282.802 130.532H283.959C283.999 130.922 284.158 131.251 284.436 131.522C284.722 131.784 285.136 131.915 285.676 131.915C286.193 131.915 286.599 131.788 286.893 131.534C287.195 131.271 287.346 130.937 287.346 130.532C287.346 130.214 287.258 129.956 287.084 129.757C286.909 129.558 286.69 129.407 286.428 129.304C286.165 129.2 285.812 129.089 285.366 128.97C284.818 128.827 284.377 128.684 284.043 128.54C283.717 128.397 283.434 128.175 283.196 127.873C282.965 127.563 282.85 127.149 282.85 126.632C282.85 126.179 282.965 125.778 283.196 125.428C283.427 125.078 283.748 124.808 284.162 124.617C284.583 124.426 285.064 124.331 285.605 124.331C286.384 124.331 287.02 124.526 287.513 124.915C288.014 125.305 288.296 125.822 288.359 126.466H287.167C287.127 126.148 286.96 125.869 286.666 125.631C286.372 125.384 285.982 125.261 285.497 125.261C285.044 125.261 284.675 125.38 284.388 125.619C284.102 125.849 283.959 126.175 283.959 126.597C283.959 126.899 284.043 127.145 284.21 127.336C284.384 127.527 284.595 127.674 284.842 127.777C285.096 127.873 285.45 127.984 285.903 128.111C286.451 128.262 286.893 128.413 287.227 128.564C287.561 128.707 287.847 128.934 288.085 129.244C288.324 129.546 288.443 129.96 288.443 130.484C288.443 130.89 288.336 131.271 288.121 131.629C287.906 131.987 287.588 132.277 287.167 132.5C286.746 132.722 286.249 132.833 285.676 132.833ZM295.835 126.215V132.75H294.75V131.784C294.544 132.118 294.253 132.38 293.88 132.571C293.514 132.754 293.109 132.845 292.663 132.845C292.155 132.845 291.697 132.742 291.292 132.535C290.887 132.321 290.565 132.003 290.326 131.581C290.096 131.16 289.98 130.647 289.98 130.043V126.215H291.054V129.9C291.054 130.544 291.216 131.041 291.542 131.391C291.868 131.732 292.314 131.903 292.878 131.903C293.458 131.903 293.916 131.724 294.249 131.367C294.583 131.009 294.75 130.488 294.75 129.805V126.215H295.835ZM300.852 126.096C301.647 126.096 302.291 126.338 302.784 126.823C303.276 127.3 303.523 127.992 303.523 128.898V132.75H302.45V129.053C302.45 128.401 302.287 127.904 301.961 127.563C301.635 127.213 301.19 127.038 300.625 127.038C300.053 127.038 299.596 127.217 299.254 127.575C298.92 127.932 298.753 128.453 298.753 129.137V132.75H297.668V126.215H298.753V127.145C298.968 126.811 299.258 126.553 299.623 126.37C299.997 126.187 300.406 126.096 300.852 126.096Z" fill="#7c3aed"/>
<path d="M286.495 168.1C286.495 166.732 286.718 165.667 287.163 164.904C287.608 164.133 288.388 163.747 289.501 163.747C290.606 163.747 291.381 164.133 291.826 164.904C292.271 165.667 292.494 166.732 292.494 168.1C292.494 169.491 292.271 170.572 291.826 171.343C291.381 172.114 290.606 172.5 289.501 172.5C288.388 172.5 287.608 172.114 287.163 171.343C286.718 170.572 286.495 169.491 286.495 168.1ZM291.42 168.1C291.42 167.408 291.373 166.824 291.277 166.347C291.19 165.862 291.003 165.472 290.717 165.178C290.439 164.884 290.033 164.737 289.501 164.737C288.96 164.737 288.547 164.884 288.26 165.178C287.982 165.472 287.795 165.862 287.7 166.347C287.612 166.824 287.569 167.408 287.569 168.1C287.569 168.815 287.612 169.415 287.7 169.9C287.795 170.385 287.982 170.775 288.26 171.069C288.547 171.363 288.96 171.51 289.501 171.51C290.033 171.51 290.439 171.363 290.717 171.069C291.003 170.775 291.19 170.385 291.277 169.9C291.373 169.415 291.42 168.815 291.42 168.1ZM293.721 170.58V169.757L297.907 163.962H299.207V169.638H300.399V170.58H299.207V172.5H298.133V170.58H293.721ZM298.181 165.095L294.973 169.638H298.181V165.095Z" fill="#333333"/>
<path d="M289.883 204.618V203.628H292.125V212.25H291.028V204.618H289.883ZM293.703 204.618V203.628H295.945V212.25H294.848V204.618H293.703Z" fill="#333333"/>
<path d="M288.032 244.368V243.378H290.274V252H289.177V244.368H288.032ZM293.712 247.516C293.267 247.341 292.925 247.087 292.686 246.753C292.448 246.419 292.329 246.014 292.329 245.537C292.329 245.107 292.436 244.722 292.65 244.38C292.865 244.03 293.183 243.756 293.604 243.557C294.034 243.35 294.551 243.247 295.155 243.247C295.759 243.247 296.272 243.35 296.693 243.557C297.122 243.756 297.444 244.03 297.659 244.38C297.882 244.722 297.993 245.107 297.993 245.537C297.993 245.998 297.87 246.403 297.623 246.753C297.377 247.095 297.039 247.349 296.61 247.516C297.102 247.667 297.492 247.934 297.778 248.315C298.072 248.689 298.219 249.142 298.219 249.675C298.219 250.191 298.092 250.645 297.838 251.034C297.583 251.416 297.222 251.714 296.753 251.928C296.292 252.135 295.759 252.238 295.155 252.238C294.551 252.238 294.018 252.135 293.557 251.928C293.104 251.714 292.75 251.416 292.495 251.034C292.241 250.645 292.114 250.191 292.114 249.675C292.114 249.142 292.257 248.685 292.543 248.303C292.829 247.922 293.219 247.659 293.712 247.516ZM296.943 245.668C296.943 245.183 296.784 244.809 296.466 244.547C296.148 244.285 295.711 244.153 295.155 244.153C294.606 244.153 294.173 244.285 293.855 244.547C293.537 244.809 293.378 245.187 293.378 245.68C293.378 246.125 293.541 246.483 293.867 246.753C294.201 247.023 294.63 247.158 295.155 247.158C295.687 247.158 296.117 247.023 296.443 246.753C296.777 246.475 296.943 246.113 296.943 245.668ZM295.155 247.993C294.566 247.993 294.085 248.132 293.712 248.411C293.338 248.681 293.151 249.09 293.151 249.639C293.151 250.148 293.33 250.557 293.688 250.867C294.054 251.177 294.543 251.332 295.155 251.332C295.767 251.332 296.252 251.177 296.61 250.867C296.967 250.557 297.146 250.148 297.146 249.639C297.146 249.106 296.963 248.701 296.598 248.423C296.232 248.136 295.751 247.993 295.155 247.993Z" fill="#333333"/>
<path d="M286.685 290.879C287.694 290.069 288.485 289.405 289.058 288.888C289.63 288.363 290.111 287.819 290.501 287.254C290.898 286.682 291.097 286.121 291.097 285.573C291.097 285.056 290.97 284.651 290.715 284.357C290.469 284.054 290.067 283.903 289.511 283.903C288.97 283.903 288.549 284.074 288.247 284.416C287.953 284.75 287.794 285.199 287.77 285.764H286.72C286.752 284.873 287.022 284.186 287.531 283.701C288.04 283.216 288.696 282.973 289.499 282.973C290.318 282.973 290.966 283.2 291.443 283.653C291.928 284.106 292.17 284.73 292.17 285.525C292.17 286.185 291.971 286.829 291.574 287.457C291.184 288.077 290.739 288.626 290.238 289.103C289.737 289.572 289.097 290.12 288.318 290.748H292.42V291.655H286.685V290.879ZM299.172 284.07H294.987V286.789C295.17 286.535 295.44 286.328 295.798 286.169C296.155 286.002 296.541 285.919 296.954 285.919C297.614 285.919 298.151 286.058 298.564 286.336C298.978 286.606 299.272 286.96 299.447 287.397C299.629 287.827 299.721 288.284 299.721 288.769C299.721 289.341 299.614 289.854 299.399 290.307C299.184 290.76 298.854 291.118 298.409 291.38C297.972 291.643 297.427 291.774 296.775 291.774C295.941 291.774 295.265 291.559 294.748 291.13C294.231 290.701 293.917 290.128 293.806 289.413H294.867C294.971 289.866 295.189 290.22 295.523 290.474C295.857 290.728 296.279 290.856 296.787 290.856C297.415 290.856 297.888 290.669 298.206 290.295C298.524 289.914 298.683 289.413 298.683 288.793C298.683 288.173 298.524 287.696 298.206 287.362C297.888 287.02 297.419 286.849 296.799 286.849C296.378 286.849 296.008 286.952 295.69 287.159C295.38 287.358 295.154 287.632 295.011 287.982H293.985V283.116H299.172V284.07Z" fill="#333333"/>
<path d="M286.816 327.1C286.816 325.732 287.038 324.667 287.484 323.904C287.929 323.133 288.708 322.747 289.821 322.747C290.926 322.747 291.701 323.133 292.146 323.904C292.591 324.667 292.814 325.732 292.814 327.1C292.814 328.491 292.591 329.572 292.146 330.343C291.701 331.114 290.926 331.5 289.821 331.5C288.708 331.5 287.929 331.114 287.484 330.343C287.038 329.572 286.816 328.491 286.816 327.1ZM291.741 327.1C291.741 326.408 291.693 325.824 291.598 325.347C291.51 324.862 291.323 324.472 291.037 324.178C290.759 323.884 290.353 323.737 289.821 323.737C289.28 323.737 288.867 323.884 288.581 324.178C288.302 324.472 288.116 324.862 288.02 325.347C287.933 325.824 287.889 326.408 287.889 327.1C287.889 327.815 287.933 328.415 288.02 328.9C288.116 329.385 288.302 329.775 288.581 330.069C288.867 330.363 289.28 330.51 289.821 330.51C290.353 330.51 290.759 330.363 291.037 330.069C291.323 329.775 291.51 329.385 291.598 328.9C291.693 328.415 291.741 327.815 291.741 327.1ZM294.173 330.629C295.182 329.819 295.973 329.155 296.546 328.638C297.118 328.113 297.599 327.569 297.989 327.004C298.386 326.432 298.585 325.871 298.585 325.323C298.585 324.806 298.458 324.401 298.203 324.107C297.957 323.804 297.555 323.653 296.999 323.653C296.458 323.653 296.037 323.824 295.735 324.166C295.441 324.5 295.282 324.949 295.258 325.514H294.208C294.24 324.623 294.51 323.936 295.019 323.451C295.528 322.966 296.184 322.723 296.987 322.723C297.806 322.723 298.454 322.95 298.931 323.403C299.416 323.856 299.658 324.48 299.658 325.275C299.658 325.935 299.459 326.579 299.062 327.207C298.672 327.827 298.227 328.376 297.726 328.853C297.225 329.322 296.585 329.87 295.806 330.498H299.909V331.405H294.173V330.629Z" fill="#7c3aed"/>
</g>
<path d="M53.32 64H50.52L44.18 54.42V64H41.38V50.02H44.18L50.52 59.62V50.02H53.32V64ZM61.007 64.18C59.9404 64.18 58.9804 63.9467 58.127 63.48C57.2737 63 56.6004 62.3267 56.107 61.46C55.627 60.5933 55.387 59.5933 55.387 58.46C55.387 57.3267 55.6337 56.3267 56.127 55.46C56.6337 54.5933 57.3204 53.9267 58.187 53.46C59.0537 52.98 60.0204 52.74 61.087 52.74C62.1537 52.74 63.1204 52.98 63.987 53.46C64.8537 53.9267 65.5337 54.5933 66.027 55.46C66.5337 56.3267 66.787 57.3267 66.787 58.46C66.787 59.5933 66.527 60.5933 66.007 61.46C65.5004 62.3267 64.807 63 63.927 63.48C63.0604 63.9467 62.087 64.18 61.007 64.18ZM61.007 61.74C61.5137 61.74 61.987 61.62 62.427 61.38C62.8804 61.1267 63.2404 60.7533 63.507 60.26C63.7737 59.7667 63.907 59.1667 63.907 58.46C63.907 57.4067 63.627 56.6 63.067 56.04C62.5204 55.4667 61.847 55.18 61.047 55.18C60.247 55.18 59.5737 55.4667 59.027 56.04C58.4937 56.6 58.227 57.4067 58.227 58.46C58.227 59.5133 58.487 60.3267 59.007 60.9C59.5404 61.46 60.207 61.74 61.007 61.74ZM73.4609 61.42L76.2609 52.92H79.2409L75.1409 64H71.7409L67.6609 52.92H70.6609L73.4609 61.42ZM91.1136 58.22C91.1136 58.62 91.0869 58.98 91.0336 59.3H82.9336C83.0003 60.1 83.2803 60.7267 83.7736 61.18C84.2669 61.6333 84.8736 61.86 85.5936 61.86C86.6336 61.86 87.3736 61.4133 87.8136 60.52H90.8336C90.5136 61.5867 89.9003 62.4667 88.9936 63.16C88.0869 63.84 86.9736 64.18 85.6536 64.18C84.5869 64.18 83.6269 63.9467 82.7736 63.48C81.9336 63 81.2736 62.3267 80.7936 61.46C80.3269 60.5933 80.0936 59.5933 80.0936 58.46C80.0936 57.3133 80.3269 56.3067 80.7936 55.44C81.2603 54.5733 81.9136 53.9067 82.7536 53.44C83.5936 52.9733 84.5603 52.74 85.6536 52.74C86.7069 52.74 87.6469 52.9667 88.4736 53.42C89.3136 53.8733 89.9603 54.52 90.4136 55.36C90.8803 56.1867 91.1136 57.14 91.1136 58.22ZM88.2136 57.42C88.2003 56.7 87.9403 56.1267 87.4336 55.7C86.9269 55.26 86.3069 55.04 85.5736 55.04C84.8803 55.04 84.2936 55.2533 83.8136 55.68C83.3469 56.0933 83.0603 56.6733 82.9536 57.42H88.2136ZM106.917 52.76C108.277 52.76 109.371 53.18 110.197 54.02C111.037 54.8467 111.457 56.0067 111.457 57.5V64H108.657V57.88C108.657 57.0133 108.437 56.3533 107.997 55.9C107.557 55.4333 106.957 55.2 106.197 55.2C105.437 55.2 104.831 55.4333 104.377 55.9C103.937 56.3533 103.717 57.0133 103.717 57.88V64H100.917V57.88C100.917 57.0133 100.697 56.3533 100.257 55.9C99.8173 55.4333 99.2173 55.2 98.4573 55.2C97.684 55.2 97.0707 55.4333 96.6173 55.9C96.1773 56.3533 95.9573 57.0133 95.9573 57.88V64H93.1573V52.92H95.9573V54.26C96.3173 53.7933 96.7773 53.4267 97.3373 53.16C97.9107 52.8933 98.5373 52.76 99.2173 52.76C100.084 52.76 100.857 52.9467 101.537 53.32C102.217 53.68 102.744 54.2 103.117 54.88C103.477 54.24 103.997 53.7267 104.677 53.34C105.371 52.9533 106.117 52.76 106.917 52.76ZM116.914 54.54C117.274 54.0067 117.768 53.5733 118.394 53.24C119.034 52.9067 119.761 52.74 120.574 52.74C121.521 52.74 122.374 52.9733 123.134 53.44C123.908 53.9067 124.514 54.5733 124.954 55.44C125.408 56.2933 125.634 57.2867 125.634 58.42C125.634 59.5533 125.408 60.56 124.954 61.44C124.514 62.3067 123.908 62.98 123.134 63.46C122.374 63.94 121.521 64.18 120.574 64.18C119.748 64.18 119.021 64.02 118.394 63.7C117.781 63.3667 117.288 62.94 116.914 62.42V64H114.114V49.2H116.914V54.54ZM122.774 58.42C122.774 57.7533 122.634 57.18 122.354 56.7C122.088 56.2067 121.728 55.8333 121.274 55.58C120.834 55.3267 120.354 55.2 119.834 55.2C119.328 55.2 118.848 55.3333 118.394 55.6C117.954 55.8533 117.594 56.2267 117.314 56.72C117.048 57.2133 116.914 57.7933 116.914 58.46C116.914 59.1267 117.048 59.7067 117.314 60.2C117.594 60.6933 117.954 61.0733 118.394 61.34C118.848 61.5933 119.328 61.72 119.834 61.72C120.354 61.72 120.834 61.5867 121.274 61.32C121.728 61.0533 122.088 60.6733 122.354 60.18C122.634 59.6867 122.774 59.1 122.774 58.42ZM137.969 58.22C137.969 58.62 137.942 58.98 137.889 59.3H129.789C129.856 60.1 130.136 60.7267 130.629 61.18C131.122 61.6333 131.729 61.86 132.449 61.86C133.489 61.86 134.229 61.4133 134.669 60.52H137.689C137.369 61.5867 136.756 62.4667 135.849 63.16C134.942 63.84 133.829 64.18 132.509 64.18C131.442 64.18 130.482 63.9467 129.629 63.48C128.789 63 128.129 62.3267 127.649 61.46C127.182 60.5933 126.949 59.5933 126.949 58.46C126.949 57.3133 127.182 56.3067 127.649 55.44C128.116 54.5733 128.769 53.9067 129.609 53.44C130.449 52.9733 131.416 52.74 132.509 52.74C133.562 52.74 134.502 52.9667 135.329 53.42C136.169 53.8733 136.816 54.52 137.269 55.36C137.736 56.1867 137.969 57.14 137.969 58.22ZM135.069 57.42C135.056 56.7 134.796 56.1267 134.289 55.7C133.782 55.26 133.162 55.04 132.429 55.04C131.736 55.04 131.149 55.2533 130.669 55.68C130.202 56.0933 129.916 56.6733 129.809 57.42H135.069ZM142.813 54.64C143.173 54.0533 143.639 53.5933 144.213 53.26C144.799 52.9267 145.466 52.76 146.213 52.76V55.7H145.473C144.593 55.7 143.926 55.9067 143.473 56.32C143.033 56.7333 142.813 57.4533 142.813 58.48V64H140.013V52.92H142.813V54.64ZM153.424 60.84C154.704 59.7733 155.724 58.8867 156.484 58.18C157.244 57.46 157.878 56.7133 158.384 55.94C158.891 55.1667 159.144 54.4067 159.144 53.66C159.144 52.98 158.984 52.4467 158.664 52.06C158.344 51.6733 157.851 51.48 157.184 51.48C156.518 51.48 156.004 51.7067 155.644 52.16C155.284 52.6 155.098 53.2067 155.084 53.98H152.364C152.418 52.38 152.891 51.1667 153.784 50.34C154.691 49.5133 155.838 49.1 157.224 49.1C158.744 49.1 159.911 49.5067 160.724 50.32C161.538 51.12 161.944 52.18 161.944 53.5C161.944 54.54 161.664 55.5333 161.104 56.48C160.544 57.4267 159.904 58.2533 159.184 58.96C158.464 59.6533 157.524 60.4933 156.364 61.48H162.264V63.8H152.384V61.72L153.424 60.84ZM164.029 56.52C164.029 54.2133 164.442 52.4067 165.269 51.1C166.109 49.7933 167.495 49.14 169.429 49.14C171.362 49.14 172.742 49.7933 173.569 51.1C174.409 52.4067 174.829 54.2133 174.829 56.52C174.829 58.84 174.409 60.66 173.569 61.98C172.742 63.3 171.362 63.96 169.429 63.96C167.495 63.96 166.109 63.3 165.269 61.98C164.442 60.66 164.029 58.84 164.029 56.52ZM172.069 56.52C172.069 55.5333 172.002 54.7067 171.869 54.04C171.749 53.36 171.495 52.8067 171.109 52.38C170.735 51.9533 170.175 51.74 169.429 51.74C168.682 51.74 168.115 51.9533 167.729 52.38C167.355 52.8067 167.102 53.36 166.969 54.04C166.849 54.7067 166.789 55.5333 166.789 56.52C166.789 57.5333 166.849 58.3867 166.969 59.08C167.089 59.76 167.342 60.3133 167.729 60.74C168.115 61.1533 168.682 61.36 169.429 61.36C170.175 61.36 170.742 61.1533 171.129 60.74C171.515 60.3133 171.769 59.76 171.889 59.08C172.009 58.3867 172.069 57.5333 172.069 56.52ZM177.838 60.84C179.118 59.7733 180.138 58.8867 180.898 58.18C181.658 57.46 182.292 56.7133 182.798 55.94C183.305 55.1667 183.558 54.4067 183.558 53.66C183.558 52.98 183.398 52.4467 183.078 52.06C182.758 51.6733 182.265 51.48 181.598 51.48C180.932 51.48 180.418 51.7067 180.058 52.16C179.698 52.6 179.512 53.2067 179.498 53.98H176.778C176.832 52.38 177.305 51.1667 178.198 50.34C179.105 49.5133 180.252 49.1 181.638 49.1C183.158 49.1 184.325 49.5067 185.138 50.32C185.952 51.12 186.358 52.18 186.358 53.5C186.358 54.54 186.078 55.5333 185.518 56.48C184.958 57.4267 184.318 58.2533 183.598 58.96C182.878 59.6533 181.938 60.4933 180.778 61.48H186.678V63.8H176.798V61.72L177.838 60.84ZM188.323 61.16V58.96L194.863 49.6H198.123V58.72H199.883V61.16H198.123V64H195.323V61.16H188.323ZM195.503 52.6L191.403 58.72H195.503V52.6Z" fill="#7c3aed"/>
<defs>
<filter id="filter0_d_25_322" x="0.093751" y="79.0625" width="367.687" height="345.687" filterUnits="userSpaceOnUse" color-interpolation-filters="sRGB">
<feFlood flood-opacity="0" result="BackgroundImageFix"/>
<feColorMatrix in="SourceAlpha" type="matrix" values="0 0 0 0 0 0 0 0 0 0 0 0 0 0 0 0 0 0 127 0" result="hardAlpha"/>
<feOffset dx="9.9375" dy="14.9062"/>
<feGaussianBlur stdDeviation="12.4219"/>
<feComposite in2="hardAlpha" operator="out"/>
<feColorMatrix type="matrix" values="0 0 0 0 0 0 0 0 0 0 0 0 0 0 0 0 0 0 0.05 0"/>
<feBlend mode="normal" in2="BackgroundImageFix" result="effect1_dropShadow_25_322"/>
<feBlend mode="normal" in="SourceGraphic" in2="effect1_dropShadow_25_322" result="shape"/>
</filter>
</defs>
</svg>
