<svg width="508" height="506" viewBox="0 0 508 506" fill="none" xmlns="http://www.w3.org/2000/svg">
<g filter="url(#filter0_dd_209_47)">
<path d="M21.4467 150.991C37.8691 71.8159 88.3995 27.7181 167.218 14.3965C225.483 4.55089 283.77 4.42621 341.937 14.673C423.092 28.9682 471.879 75.6377 487.421 156.01C499.428 218.124 499.617 280.9 487.232 342.956C470.618 421.582 418.784 470.116 340.257 483.389C281.991 493.234 223.705 493.358 165.537 483.113C84.3825 468.816 35.3787 419.817 19.8377 339.446C7.21759 276.922 8.4319 213.749 21.4467 150.99V150.991Z" fill="#5E47EF"/>
<path d="M21.4467 150.991C37.8691 71.8159 88.3995 27.7181 167.218 14.3965C225.483 4.55089 283.77 4.42621 341.937 14.673C423.092 28.9682 471.879 75.6377 487.421 156.01C499.428 218.124 499.617 280.9 487.232 342.956C470.618 421.582 418.784 470.116 340.257 483.389C281.991 493.234 223.705 493.358 165.537 483.113C84.3825 468.816 35.3787 419.817 19.8377 339.446C7.21759 276.922 8.4319 213.749 21.4467 150.99V150.991Z" fill="#6550F0"/>
</g>
<path d="M21.4467 150.991C37.8691 71.8159 88.3995 27.7181 167.218 14.3965C225.483 4.55089 283.77 4.42621 341.937 14.673C423.092 28.9682 471.879 75.6377 487.421 156.01C499.428 218.124 499.617 280.9 487.232 342.956C470.618 421.582 418.784 470.116 340.257 483.389C281.991 493.234 223.705 493.358 165.537 483.113C84.3825 468.816 35.3787 419.817 19.8377 339.446C7.21759 276.922 8.4319 213.75 21.4467 150.991Z" fill="#5E47EF"/>
<path d="M21.4467 150.991C37.8691 71.8159 88.3995 27.7181 167.218 14.3965C225.483 4.55089 283.77 4.42621 341.937 14.673C423.092 28.9682 471.879 75.6377 487.421 156.01C499.428 218.124 499.617 280.9 487.232 342.956C470.618 421.582 418.784 470.116 340.257 483.389C281.991 493.234 223.705 493.358 165.537 483.113C84.3825 468.816 35.3787 419.817 19.8377 339.446C7.21759 276.922 8.4319 213.75 21.4467 150.991Z" fill="#6550F0"/>
<path fill-rule="evenodd" clip-rule="evenodd" d="M262.175 141.263C313.514 145.165 354.609 185.699 359.397 236.786H262.175V141.263ZM168.808 184.057C186.231 160.423 213.242 144.299 244.104 141.424V232.879L168.808 184.057ZM254.042 118.667C183.883 118.667 127.008 175.542 127.008 245.701C127.008 315.858 183.884 372.732 254.042 372.732C268.969 372.732 283.291 370.149 296.596 365.421L289.744 346.432C278.288 350.534 266.209 352.624 254.041 352.612C195.595 352.612 148.214 305.232 148.214 246.785C148.214 229.776 152.232 213.71 159.362 199.471L244.103 254.917L359.563 254.857C357.546 281.563 345.62 305.5 327.451 323.007L341.895 337.451C366.037 314.328 381.075 281.771 381.075 245.701C381.075 175.542 324.199 118.667 254.042 118.667Z" fill="white"/>
<defs>
<filter id="filter0_dd_209_47" x="0" y="0" width="507.474" height="505.785" filterUnits="userSpaceOnUse" color-interpolation-filters="sRGB">
<feFlood flood-opacity="0" result="BackgroundImageFix"/>
<feColorMatrix in="SourceAlpha" type="matrix" values="0 0 0 0 0 0 0 0 0 0 0 0 0 0 0 0 0 0 127 0" result="hardAlpha"/>
<feOffset dy="5"/>
<feGaussianBlur stdDeviation="4"/>
<feColorMatrix type="matrix" values="0 0 0 0 0 0 0 0 0 0 0 0 0 0 0 0 0 0 0.078125 0"/>
<feBlend mode="normal" in2="BackgroundImageFix" result="effect1_dropShadow_209_47"/>
<feColorMatrix in="SourceAlpha" type="matrix" values="0 0 0 0 0 0 0 0 0 0 0 0 0 0 0 0 0 0 127 0" result="hardAlpha"/>
<feOffset dy="4"/>
<feGaussianBlur stdDeviation="5.5"/>
<feColorMatrix type="matrix" values="0 0 0 0 0 0 0 0 0 0 0 0 0 0 0 0 0 0 0.210824 0"/>
<feBlend mode="normal" in2="effect1_dropShadow_209_47" result="effect2_dropShadow_209_47"/>
<feBlend mode="normal" in="SourceGraphic" in2="effect2_dropShadow_209_47" result="shape"/>
</filter>
</defs>
</svg>
